M48
; DRILL file {KiCad 7.0.10} date Tue 30 Jan 2024 06:20:02 PM PST
; FORMAT={-:-/ absolute / inch / decimal}
; #@! TF.CreationDate,2024-01-30T18:20:02-08:00
; #@! TF.GenerationSoftware,Kicad,Pcbnew,7.0.10
; #@! TF.FileFunction,Plated,1,2,PTH
FMAT,2
INCH
; #@! TA.AperFunction,Plated,PTH,ViaDrill
T1C0.0157
; #@! TA.AperFunction,Plated,PTH,ComponentDrill
T2C0.0236
; #@! TA.AperFunction,Plated,PTH,ComponentDrill
T3C0.0280
; #@! TA.AperFunction,Plated,PTH,ComponentDrill
T4C0.0315
; #@! TA.AperFunction,Plated,PTH,ComponentDrill
T5C0.0394
; #@! TA.AperFunction,Plated,PTH,ComponentDrill
T6C0.0400
; #@! TA.AperFunction,Plated,PTH,ComponentDrill
T7C0.0402
; #@! TA.AperFunction,Plated,PTH,ComponentDrill
T8C0.0510
; #@! TA.AperFunction,Plated,PTH,ComponentDrill
T9C0.1063
%
G90
G05
T1
X3.8878Y-4.7933
X3.9062Y-3.0938
X3.9688Y-3.7812
X3.9688Y-4.7188
X4.2716Y-4.7933
X4.625Y-4.7188
X5.0625Y-4.6875
X5.0625Y-5.25
X5.5312Y-4.7812
X5.6311Y-4.7478
X5.9688Y-4.25
X6.0625Y-4.3125
X6.1875Y-4.8438
X6.1875Y-5.2188
X6.5625Y-4.3125
X6.5625Y-4.7812
X6.7188Y-4.25
X6.7188Y-4.7478
X7.25Y-3.2812
X7.25Y-4.7478
X7.3125Y-3.1875
X7.3125Y-4.7812
X7.7188Y-4.8438
T3
X6.1875Y-5.0312
X6.2875Y-5.0312
X6.3875Y-5.0312
T4
X3.396Y-5.0312
X3.5929Y-5.0312
T5
X5.2311Y-5.1378
X5.3311Y-5.1378
X5.4311Y-5.1378
X5.5311Y-5.1378
X5.6311Y-5.1378
X5.7311Y-5.1378
X5.8311Y-5.1378
T6
X4.2614Y-4.4768
X4.2614Y-4.5768
X4.3614Y-4.4768
X4.3614Y-4.5768
X4.4614Y-4.4768
X4.4614Y-4.5768
X4.5614Y-4.4768
X4.5614Y-4.5768
X4.6614Y-4.4768
X4.6614Y-4.5768
X4.7614Y-4.4768
X4.7614Y-4.5768
X4.8614Y-4.4768
X4.8614Y-4.5768
X4.9614Y-4.4768
X4.9614Y-4.5768
X5.0614Y-4.4768
X5.0614Y-4.5768
X5.1614Y-4.4768
X5.1614Y-4.5768
X5.2614Y-4.4768
X5.2614Y-4.5768
X5.3614Y-4.4768
X5.3614Y-4.5768
X5.4614Y-4.4768
X5.4614Y-4.5768
X5.5614Y-4.4768
X5.5614Y-4.5768
X5.6614Y-4.4768
X5.6614Y-4.5768
X5.7614Y-4.4768
X5.7614Y-4.5768
X5.8614Y-4.4768
X5.8614Y-4.5768
X5.9614Y-4.4768
X5.9614Y-4.5768
X6.0614Y-4.4768
X6.0614Y-4.5768
X6.1614Y-4.4768
X6.1614Y-4.5768
T7
X7.15Y-2.675
X7.15Y-2.775
X7.15Y-2.875
X7.15Y-2.975
X7.15Y-3.075
X7.15Y-3.175
X7.15Y-3.275
X7.15Y-3.375
X7.15Y-3.475
X7.15Y-3.575
X7.15Y-3.675
X7.15Y-3.775
X7.15Y-3.875
X7.15Y-3.975
X7.15Y-4.075
X7.15Y-4.175
X7.15Y-4.275
X7.15Y-4.375
X7.15Y-4.475
X7.15Y-4.575
X7.4Y-4.5659
X7.5Y-4.5659
X7.6Y-4.5659
X7.85Y-2.675
X7.85Y-2.775
X7.85Y-2.875
X7.85Y-2.975
X7.85Y-3.075
X7.85Y-3.175
X7.85Y-3.275
X7.85Y-3.375
X7.85Y-3.475
X7.85Y-3.575
X7.85Y-3.675
X7.85Y-3.775
X7.85Y-3.875
X7.85Y-3.975
X7.85Y-4.075
X7.85Y-4.175
X7.85Y-4.275
X7.85Y-4.375
X7.85Y-4.475
X7.85Y-4.575
T8
X3.8779Y-5.0312
X4.0747Y-5.0312
X4.2716Y-5.0312
X4.625Y-5.0312
X4.8219Y-5.0312
T9
X7.0603Y-4.9882
X7.3438Y-4.9882
T2
G00X6.9363Y-5.2461
M15
G01X6.9363Y-5.2028
M16
G05
G00X7.4678Y-5.2461
M15
G01X7.4678Y-5.2028
M16
G05
M30
