%TF.GenerationSoftware,KiCad,Pcbnew,7.0.10*%
%TF.CreationDate,2024-01-30T18:20:02-08:00*%
%TF.ProjectId,pcb-1,7063622d-312e-46b6-9963-61645f706362,rev?*%
%TF.SameCoordinates,Original*%
%TF.FileFunction,Legend,Top*%
%TF.FilePolarity,Positive*%
%FSLAX46Y46*%
G04 Gerber Fmt 4.6, Leading zero omitted, Abs format (unit mm)*
G04 Created by KiCad (PCBNEW 7.0.10) date 2024-01-30 18:20:02*
%MOMM*%
%LPD*%
G01*
G04 APERTURE LIST*
G04 Aperture macros list*
%AMRoundRect*
0 Rectangle with rounded corners*
0 $1 Rounding radius*
0 $2 $3 $4 $5 $6 $7 $8 $9 X,Y pos of 4 corners*
0 Add a 4 corners polygon primitive as box body*
4,1,4,$2,$3,$4,$5,$6,$7,$8,$9,$2,$3,0*
0 Add four circle primitives for the rounded corners*
1,1,$1+$1,$2,$3*
1,1,$1+$1,$4,$5*
1,1,$1+$1,$6,$7*
1,1,$1+$1,$8,$9*
0 Add four rect primitives between the rounded corners*
20,1,$1+$1,$2,$3,$4,$5,0*
20,1,$1+$1,$4,$5,$6,$7,0*
20,1,$1+$1,$6,$7,$8,$9,0*
20,1,$1+$1,$8,$9,$2,$3,0*%
G04 Aperture macros list end*
%ADD10C,0.150000*%
%ADD11C,0.120000*%
%ADD12C,0.152400*%
%ADD13C,0.508000*%
%ADD14C,2.750000*%
%ADD15R,1.750000X1.750000*%
%ADD16C,1.750000*%
%ADD17R,1.600000X1.600000*%
%ADD18C,1.600000*%
%ADD19R,1.700000X1.700000*%
%ADD20O,1.700000X1.700000*%
%ADD21O,1.800000X1.800000*%
%ADD22O,1.500000X1.500000*%
%ADD23R,3.500000X1.700000*%
%ADD24R,1.700000X3.500000*%
%ADD25C,1.803400*%
%ADD26C,1.219200*%
%ADD27R,0.900000X2.000000*%
%ADD28RoundRect,1.025000X1.025000X1.025000X-1.025000X1.025000X-1.025000X-1.025000X1.025000X-1.025000X0*%
%ADD29C,4.100000*%
G04 APERTURE END LIST*
D10*
X137988862Y-122377259D02*
X138131719Y-122424878D01*
X138131719Y-122424878D02*
X138179338Y-122472497D01*
X138179338Y-122472497D02*
X138226957Y-122567735D01*
X138226957Y-122567735D02*
X138226957Y-122710592D01*
X138226957Y-122710592D02*
X138179338Y-122805830D01*
X138179338Y-122805830D02*
X138131719Y-122853450D01*
X138131719Y-122853450D02*
X138036481Y-122901069D01*
X138036481Y-122901069D02*
X137655529Y-122901069D01*
X137655529Y-122901069D02*
X137655529Y-121901069D01*
X137655529Y-121901069D02*
X137988862Y-121901069D01*
X137988862Y-121901069D02*
X138084100Y-121948688D01*
X138084100Y-121948688D02*
X138131719Y-121996307D01*
X138131719Y-121996307D02*
X138179338Y-122091545D01*
X138179338Y-122091545D02*
X138179338Y-122186783D01*
X138179338Y-122186783D02*
X138131719Y-122282021D01*
X138131719Y-122282021D02*
X138084100Y-122329640D01*
X138084100Y-122329640D02*
X137988862Y-122377259D01*
X137988862Y-122377259D02*
X137655529Y-122377259D01*
X138655529Y-122901069D02*
X138655529Y-121901069D01*
X138655529Y-121901069D02*
X138988862Y-122615354D01*
X138988862Y-122615354D02*
X139322195Y-121901069D01*
X139322195Y-121901069D02*
X139322195Y-122901069D01*
X139703148Y-121901069D02*
X140369814Y-122901069D01*
X140369814Y-121901069D02*
X139703148Y-122901069D01*
X141274576Y-122901069D02*
X140703148Y-122901069D01*
X140988862Y-122901069D02*
X140988862Y-121901069D01*
X140988862Y-121901069D02*
X140893624Y-122043926D01*
X140893624Y-122043926D02*
X140798386Y-122139164D01*
X140798386Y-122139164D02*
X140703148Y-122186783D01*
X142131719Y-121901069D02*
X141941243Y-121901069D01*
X141941243Y-121901069D02*
X141846005Y-121948688D01*
X141846005Y-121948688D02*
X141798386Y-121996307D01*
X141798386Y-121996307D02*
X141703148Y-122139164D01*
X141703148Y-122139164D02*
X141655529Y-122329640D01*
X141655529Y-122329640D02*
X141655529Y-122710592D01*
X141655529Y-122710592D02*
X141703148Y-122805830D01*
X141703148Y-122805830D02*
X141750767Y-122853450D01*
X141750767Y-122853450D02*
X141846005Y-122901069D01*
X141846005Y-122901069D02*
X142036481Y-122901069D01*
X142036481Y-122901069D02*
X142131719Y-122853450D01*
X142131719Y-122853450D02*
X142179338Y-122805830D01*
X142179338Y-122805830D02*
X142226957Y-122710592D01*
X142226957Y-122710592D02*
X142226957Y-122472497D01*
X142226957Y-122472497D02*
X142179338Y-122377259D01*
X142179338Y-122377259D02*
X142131719Y-122329640D01*
X142131719Y-122329640D02*
X142036481Y-122282021D01*
X142036481Y-122282021D02*
X141846005Y-122282021D01*
X141846005Y-122282021D02*
X141750767Y-122329640D01*
X141750767Y-122329640D02*
X141703148Y-122377259D01*
X141703148Y-122377259D02*
X141655529Y-122472497D01*
X142846005Y-121901069D02*
X142941243Y-121901069D01*
X142941243Y-121901069D02*
X143036481Y-121948688D01*
X143036481Y-121948688D02*
X143084100Y-121996307D01*
X143084100Y-121996307D02*
X143131719Y-122091545D01*
X143131719Y-122091545D02*
X143179338Y-122282021D01*
X143179338Y-122282021D02*
X143179338Y-122520116D01*
X143179338Y-122520116D02*
X143131719Y-122710592D01*
X143131719Y-122710592D02*
X143084100Y-122805830D01*
X143084100Y-122805830D02*
X143036481Y-122853450D01*
X143036481Y-122853450D02*
X142941243Y-122901069D01*
X142941243Y-122901069D02*
X142846005Y-122901069D01*
X142846005Y-122901069D02*
X142750767Y-122853450D01*
X142750767Y-122853450D02*
X142703148Y-122805830D01*
X142703148Y-122805830D02*
X142655529Y-122710592D01*
X142655529Y-122710592D02*
X142607910Y-122520116D01*
X142607910Y-122520116D02*
X142607910Y-122282021D01*
X142607910Y-122282021D02*
X142655529Y-122091545D01*
X142655529Y-122091545D02*
X142703148Y-121996307D01*
X142703148Y-121996307D02*
X142750767Y-121948688D01*
X142750767Y-121948688D02*
X142846005Y-121901069D01*
X119399279Y-122377259D02*
X119732612Y-122377259D01*
X119875469Y-122901069D02*
X119399279Y-122901069D01*
X119399279Y-122901069D02*
X119399279Y-121901069D01*
X119399279Y-121901069D02*
X119875469Y-121901069D01*
X120256422Y-122853450D02*
X120399279Y-122901069D01*
X120399279Y-122901069D02*
X120637374Y-122901069D01*
X120637374Y-122901069D02*
X120732612Y-122853450D01*
X120732612Y-122853450D02*
X120780231Y-122805830D01*
X120780231Y-122805830D02*
X120827850Y-122710592D01*
X120827850Y-122710592D02*
X120827850Y-122615354D01*
X120827850Y-122615354D02*
X120780231Y-122520116D01*
X120780231Y-122520116D02*
X120732612Y-122472497D01*
X120732612Y-122472497D02*
X120637374Y-122424878D01*
X120637374Y-122424878D02*
X120446898Y-122377259D01*
X120446898Y-122377259D02*
X120351660Y-122329640D01*
X120351660Y-122329640D02*
X120304041Y-122282021D01*
X120304041Y-122282021D02*
X120256422Y-122186783D01*
X120256422Y-122186783D02*
X120256422Y-122091545D01*
X120256422Y-122091545D02*
X120304041Y-121996307D01*
X120304041Y-121996307D02*
X120351660Y-121948688D01*
X120351660Y-121948688D02*
X120446898Y-121901069D01*
X120446898Y-121901069D02*
X120684993Y-121901069D01*
X120684993Y-121901069D02*
X120827850Y-121948688D01*
X121827850Y-122805830D02*
X121780231Y-122853450D01*
X121780231Y-122853450D02*
X121637374Y-122901069D01*
X121637374Y-122901069D02*
X121542136Y-122901069D01*
X121542136Y-122901069D02*
X121399279Y-122853450D01*
X121399279Y-122853450D02*
X121304041Y-122758211D01*
X121304041Y-122758211D02*
X121256422Y-122662973D01*
X121256422Y-122662973D02*
X121208803Y-122472497D01*
X121208803Y-122472497D02*
X121208803Y-122329640D01*
X121208803Y-122329640D02*
X121256422Y-122139164D01*
X121256422Y-122139164D02*
X121304041Y-122043926D01*
X121304041Y-122043926D02*
X121399279Y-121948688D01*
X121399279Y-121948688D02*
X121542136Y-121901069D01*
X121542136Y-121901069D02*
X121637374Y-121901069D01*
X121637374Y-121901069D02*
X121780231Y-121948688D01*
X121780231Y-121948688D02*
X121827850Y-121996307D01*
X193217680Y-128829041D02*
X192217680Y-129495707D01*
X193217680Y-129495707D02*
X192217680Y-128829041D01*
X193217680Y-129733803D02*
X193217680Y-130305231D01*
X192217680Y-130019517D02*
X193217680Y-130019517D01*
X193217680Y-131067136D02*
X193217680Y-130876660D01*
X193217680Y-130876660D02*
X193170061Y-130781422D01*
X193170061Y-130781422D02*
X193122442Y-130733803D01*
X193122442Y-130733803D02*
X192979585Y-130638565D01*
X192979585Y-130638565D02*
X192789109Y-130590946D01*
X192789109Y-130590946D02*
X192408157Y-130590946D01*
X192408157Y-130590946D02*
X192312919Y-130638565D01*
X192312919Y-130638565D02*
X192265300Y-130686184D01*
X192265300Y-130686184D02*
X192217680Y-130781422D01*
X192217680Y-130781422D02*
X192217680Y-130971898D01*
X192217680Y-130971898D02*
X192265300Y-131067136D01*
X192265300Y-131067136D02*
X192312919Y-131114755D01*
X192312919Y-131114755D02*
X192408157Y-131162374D01*
X192408157Y-131162374D02*
X192646252Y-131162374D01*
X192646252Y-131162374D02*
X192741490Y-131114755D01*
X192741490Y-131114755D02*
X192789109Y-131067136D01*
X192789109Y-131067136D02*
X192836728Y-130971898D01*
X192836728Y-130971898D02*
X192836728Y-130781422D01*
X192836728Y-130781422D02*
X192789109Y-130686184D01*
X192789109Y-130686184D02*
X192741490Y-130638565D01*
X192741490Y-130638565D02*
X192646252Y-130590946D01*
X193217680Y-131781422D02*
X193217680Y-131876660D01*
X193217680Y-131876660D02*
X193170061Y-131971898D01*
X193170061Y-131971898D02*
X193122442Y-132019517D01*
X193122442Y-132019517D02*
X193027204Y-132067136D01*
X193027204Y-132067136D02*
X192836728Y-132114755D01*
X192836728Y-132114755D02*
X192598633Y-132114755D01*
X192598633Y-132114755D02*
X192408157Y-132067136D01*
X192408157Y-132067136D02*
X192312919Y-132019517D01*
X192312919Y-132019517D02*
X192265300Y-131971898D01*
X192265300Y-131971898D02*
X192217680Y-131876660D01*
X192217680Y-131876660D02*
X192217680Y-131781422D01*
X192217680Y-131781422D02*
X192265300Y-131686184D01*
X192265300Y-131686184D02*
X192312919Y-131638565D01*
X192312919Y-131638565D02*
X192408157Y-131590946D01*
X192408157Y-131590946D02*
X192598633Y-131543327D01*
X192598633Y-131543327D02*
X192836728Y-131543327D01*
X192836728Y-131543327D02*
X193027204Y-131590946D01*
X193027204Y-131590946D02*
X193122442Y-131638565D01*
X193122442Y-131638565D02*
X193170061Y-131686184D01*
X193170061Y-131686184D02*
X193217680Y-131781422D01*
X158943922Y-121107319D02*
X159515350Y-121107319D01*
X159229636Y-122107319D02*
X159229636Y-121107319D01*
X159801065Y-122059700D02*
X159943922Y-122107319D01*
X159943922Y-122107319D02*
X160182017Y-122107319D01*
X160182017Y-122107319D02*
X160277255Y-122059700D01*
X160277255Y-122059700D02*
X160324874Y-122012080D01*
X160324874Y-122012080D02*
X160372493Y-121916842D01*
X160372493Y-121916842D02*
X160372493Y-121821604D01*
X160372493Y-121821604D02*
X160324874Y-121726366D01*
X160324874Y-121726366D02*
X160277255Y-121678747D01*
X160277255Y-121678747D02*
X160182017Y-121631128D01*
X160182017Y-121631128D02*
X159991541Y-121583509D01*
X159991541Y-121583509D02*
X159896303Y-121535890D01*
X159896303Y-121535890D02*
X159848684Y-121488271D01*
X159848684Y-121488271D02*
X159801065Y-121393033D01*
X159801065Y-121393033D02*
X159801065Y-121297795D01*
X159801065Y-121297795D02*
X159848684Y-121202557D01*
X159848684Y-121202557D02*
X159896303Y-121154938D01*
X159896303Y-121154938D02*
X159991541Y-121107319D01*
X159991541Y-121107319D02*
X160229636Y-121107319D01*
X160229636Y-121107319D02*
X160372493Y-121154938D01*
X161372493Y-122107319D02*
X161039160Y-121631128D01*
X160801065Y-122107319D02*
X160801065Y-121107319D01*
X160801065Y-121107319D02*
X161182017Y-121107319D01*
X161182017Y-121107319D02*
X161277255Y-121154938D01*
X161277255Y-121154938D02*
X161324874Y-121202557D01*
X161324874Y-121202557D02*
X161372493Y-121297795D01*
X161372493Y-121297795D02*
X161372493Y-121440652D01*
X161372493Y-121440652D02*
X161324874Y-121535890D01*
X161324874Y-121535890D02*
X161277255Y-121583509D01*
X161277255Y-121583509D02*
X161182017Y-121631128D01*
X161182017Y-121631128D02*
X160801065Y-121631128D01*
X101095410Y-122853450D02*
X101238267Y-122901069D01*
X101238267Y-122901069D02*
X101476362Y-122901069D01*
X101476362Y-122901069D02*
X101571600Y-122853450D01*
X101571600Y-122853450D02*
X101619219Y-122805830D01*
X101619219Y-122805830D02*
X101666838Y-122710592D01*
X101666838Y-122710592D02*
X101666838Y-122615354D01*
X101666838Y-122615354D02*
X101619219Y-122520116D01*
X101619219Y-122520116D02*
X101571600Y-122472497D01*
X101571600Y-122472497D02*
X101476362Y-122424878D01*
X101476362Y-122424878D02*
X101285886Y-122377259D01*
X101285886Y-122377259D02*
X101190648Y-122329640D01*
X101190648Y-122329640D02*
X101143029Y-122282021D01*
X101143029Y-122282021D02*
X101095410Y-122186783D01*
X101095410Y-122186783D02*
X101095410Y-122091545D01*
X101095410Y-122091545D02*
X101143029Y-121996307D01*
X101143029Y-121996307D02*
X101190648Y-121948688D01*
X101190648Y-121948688D02*
X101285886Y-121901069D01*
X101285886Y-121901069D02*
X101523981Y-121901069D01*
X101523981Y-121901069D02*
X101666838Y-121948688D01*
X102095410Y-122377259D02*
X102428743Y-122377259D01*
X102571600Y-122901069D02*
X102095410Y-122901069D01*
X102095410Y-122901069D02*
X102095410Y-121901069D01*
X102095410Y-121901069D02*
X102571600Y-121901069D01*
X103571600Y-122901069D02*
X103238267Y-122424878D01*
X103000172Y-122901069D02*
X103000172Y-121901069D01*
X103000172Y-121901069D02*
X103381124Y-121901069D01*
X103381124Y-121901069D02*
X103476362Y-121948688D01*
X103476362Y-121948688D02*
X103523981Y-121996307D01*
X103523981Y-121996307D02*
X103571600Y-122091545D01*
X103571600Y-122091545D02*
X103571600Y-122234402D01*
X103571600Y-122234402D02*
X103523981Y-122329640D01*
X103523981Y-122329640D02*
X103476362Y-122377259D01*
X103476362Y-122377259D02*
X103381124Y-122424878D01*
X103381124Y-122424878D02*
X103000172Y-122424878D01*
X103857315Y-121901069D02*
X104190648Y-122901069D01*
X104190648Y-122901069D02*
X104523981Y-121901069D01*
X105047791Y-121901069D02*
X105238267Y-121901069D01*
X105238267Y-121901069D02*
X105333505Y-121948688D01*
X105333505Y-121948688D02*
X105428743Y-122043926D01*
X105428743Y-122043926D02*
X105476362Y-122234402D01*
X105476362Y-122234402D02*
X105476362Y-122567735D01*
X105476362Y-122567735D02*
X105428743Y-122758211D01*
X105428743Y-122758211D02*
X105333505Y-122853450D01*
X105333505Y-122853450D02*
X105238267Y-122901069D01*
X105238267Y-122901069D02*
X105047791Y-122901069D01*
X105047791Y-122901069D02*
X104952553Y-122853450D01*
X104952553Y-122853450D02*
X104857315Y-122758211D01*
X104857315Y-122758211D02*
X104809696Y-122567735D01*
X104809696Y-122567735D02*
X104809696Y-122234402D01*
X104809696Y-122234402D02*
X104857315Y-122043926D01*
X104857315Y-122043926D02*
X104952553Y-121948688D01*
X104952553Y-121948688D02*
X105047791Y-121901069D01*
X87354171Y-121748569D02*
X86782743Y-121748569D01*
X87068457Y-121748569D02*
X87068457Y-120748569D01*
X87068457Y-120748569D02*
X86973219Y-120891426D01*
X86973219Y-120891426D02*
X86877981Y-120986664D01*
X86877981Y-120986664D02*
X86782743Y-121034283D01*
X87973219Y-120748569D02*
X88068457Y-120748569D01*
X88068457Y-120748569D02*
X88163695Y-120796188D01*
X88163695Y-120796188D02*
X88211314Y-120843807D01*
X88211314Y-120843807D02*
X88258933Y-120939045D01*
X88258933Y-120939045D02*
X88306552Y-121129521D01*
X88306552Y-121129521D02*
X88306552Y-121367616D01*
X88306552Y-121367616D02*
X88258933Y-121558092D01*
X88258933Y-121558092D02*
X88211314Y-121653330D01*
X88211314Y-121653330D02*
X88163695Y-121700950D01*
X88163695Y-121700950D02*
X88068457Y-121748569D01*
X88068457Y-121748569D02*
X87973219Y-121748569D01*
X87973219Y-121748569D02*
X87877981Y-121700950D01*
X87877981Y-121700950D02*
X87830362Y-121653330D01*
X87830362Y-121653330D02*
X87782743Y-121558092D01*
X87782743Y-121558092D02*
X87735124Y-121367616D01*
X87735124Y-121367616D02*
X87735124Y-121129521D01*
X87735124Y-121129521D02*
X87782743Y-120939045D01*
X87782743Y-120939045D02*
X87830362Y-120843807D01*
X87830362Y-120843807D02*
X87877981Y-120796188D01*
X87877981Y-120796188D02*
X87973219Y-120748569D01*
X88925600Y-120748569D02*
X89020838Y-120748569D01*
X89020838Y-120748569D02*
X89116076Y-120796188D01*
X89116076Y-120796188D02*
X89163695Y-120843807D01*
X89163695Y-120843807D02*
X89211314Y-120939045D01*
X89211314Y-120939045D02*
X89258933Y-121129521D01*
X89258933Y-121129521D02*
X89258933Y-121367616D01*
X89258933Y-121367616D02*
X89211314Y-121558092D01*
X89211314Y-121558092D02*
X89163695Y-121653330D01*
X89163695Y-121653330D02*
X89116076Y-121700950D01*
X89116076Y-121700950D02*
X89020838Y-121748569D01*
X89020838Y-121748569D02*
X88925600Y-121748569D01*
X88925600Y-121748569D02*
X88830362Y-121700950D01*
X88830362Y-121700950D02*
X88782743Y-121653330D01*
X88782743Y-121653330D02*
X88735124Y-121558092D01*
X88735124Y-121558092D02*
X88687505Y-121367616D01*
X88687505Y-121367616D02*
X88687505Y-121129521D01*
X88687505Y-121129521D02*
X88735124Y-120939045D01*
X88735124Y-120939045D02*
X88782743Y-120843807D01*
X88782743Y-120843807D02*
X88830362Y-120796188D01*
X88830362Y-120796188D02*
X88925600Y-120748569D01*
X90116076Y-121081902D02*
X90116076Y-121748569D01*
X89687505Y-121081902D02*
X89687505Y-121605711D01*
X89687505Y-121605711D02*
X89735124Y-121700950D01*
X89735124Y-121700950D02*
X89830362Y-121748569D01*
X89830362Y-121748569D02*
X89973219Y-121748569D01*
X89973219Y-121748569D02*
X90068457Y-121700950D01*
X90068457Y-121700950D02*
X90116076Y-121653330D01*
X90449410Y-121081902D02*
X90830362Y-121081902D01*
X90592267Y-121748569D02*
X90592267Y-120891426D01*
X90592267Y-120891426D02*
X90639886Y-120796188D01*
X90639886Y-120796188D02*
X90735124Y-120748569D01*
X90735124Y-120748569D02*
X90830362Y-120748569D01*
X189738095Y-91529819D02*
X189738095Y-92339342D01*
X189738095Y-92339342D02*
X189785714Y-92434580D01*
X189785714Y-92434580D02*
X189833333Y-92482200D01*
X189833333Y-92482200D02*
X189928571Y-92529819D01*
X189928571Y-92529819D02*
X190119047Y-92529819D01*
X190119047Y-92529819D02*
X190214285Y-92482200D01*
X190214285Y-92482200D02*
X190261904Y-92434580D01*
X190261904Y-92434580D02*
X190309523Y-92339342D01*
X190309523Y-92339342D02*
X190309523Y-91529819D01*
X191309523Y-92529819D02*
X190738095Y-92529819D01*
X191023809Y-92529819D02*
X191023809Y-91529819D01*
X191023809Y-91529819D02*
X190928571Y-91672676D01*
X190928571Y-91672676D02*
X190833333Y-91767914D01*
X190833333Y-91767914D02*
X190738095Y-91815533D01*
X176986435Y-111273431D02*
X176905623Y-111300368D01*
X176905623Y-111300368D02*
X176824811Y-111381180D01*
X176824811Y-111381180D02*
X176770936Y-111488930D01*
X176770936Y-111488930D02*
X176770936Y-111596680D01*
X176770936Y-111596680D02*
X176797873Y-111677492D01*
X176797873Y-111677492D02*
X176878685Y-111812179D01*
X176878685Y-111812179D02*
X176959498Y-111892991D01*
X176959498Y-111892991D02*
X177094185Y-111973803D01*
X177094185Y-111973803D02*
X177174997Y-112000741D01*
X177174997Y-112000741D02*
X177282746Y-112000741D01*
X177282746Y-112000741D02*
X177390496Y-111946866D01*
X177390496Y-111946866D02*
X177444371Y-111892991D01*
X177444371Y-111892991D02*
X177498246Y-111785241D01*
X177498246Y-111785241D02*
X177498246Y-111731367D01*
X177498246Y-111731367D02*
X177309684Y-111542805D01*
X177309684Y-111542805D02*
X177201934Y-111650554D01*
X177794557Y-111542805D02*
X177228872Y-110977119D01*
X177228872Y-110977119D02*
X178117806Y-111219556D01*
X178117806Y-111219556D02*
X177552120Y-110653871D01*
X178387180Y-110950182D02*
X177821494Y-110384497D01*
X177821494Y-110384497D02*
X177956181Y-110249810D01*
X177956181Y-110249810D02*
X178063931Y-110195935D01*
X178063931Y-110195935D02*
X178171680Y-110195935D01*
X178171680Y-110195935D02*
X178252493Y-110222872D01*
X178252493Y-110222872D02*
X178387180Y-110303685D01*
X178387180Y-110303685D02*
X178467992Y-110384497D01*
X178467992Y-110384497D02*
X178548804Y-110519184D01*
X178548804Y-110519184D02*
X178575741Y-110599996D01*
X178575741Y-110599996D02*
X178575741Y-110707746D01*
X178575741Y-110707746D02*
X178521867Y-110815495D01*
X178521867Y-110815495D02*
X178387180Y-110950182D01*
X176489998Y-116595868D02*
X176409185Y-116622805D01*
X176409185Y-116622805D02*
X176328373Y-116703618D01*
X176328373Y-116703618D02*
X176274498Y-116811367D01*
X176274498Y-116811367D02*
X176274498Y-116919117D01*
X176274498Y-116919117D02*
X176301436Y-116999929D01*
X176301436Y-116999929D02*
X176382248Y-117134616D01*
X176382248Y-117134616D02*
X176463060Y-117215428D01*
X176463060Y-117215428D02*
X176597747Y-117296241D01*
X176597747Y-117296241D02*
X176678560Y-117323178D01*
X176678560Y-117323178D02*
X176786309Y-117323178D01*
X176786309Y-117323178D02*
X176894059Y-117269303D01*
X176894059Y-117269303D02*
X176947934Y-117215428D01*
X176947934Y-117215428D02*
X177001808Y-117107679D01*
X177001808Y-117107679D02*
X177001808Y-117053804D01*
X177001808Y-117053804D02*
X176813247Y-116865242D01*
X176813247Y-116865242D02*
X176705497Y-116972992D01*
X177298120Y-116865242D02*
X176732434Y-116299557D01*
X176732434Y-116299557D02*
X176947934Y-116084057D01*
X176947934Y-116084057D02*
X177028746Y-116057120D01*
X177028746Y-116057120D02*
X177082621Y-116057120D01*
X177082621Y-116057120D02*
X177163433Y-116084057D01*
X177163433Y-116084057D02*
X177244245Y-116164870D01*
X177244245Y-116164870D02*
X177271182Y-116245682D01*
X177271182Y-116245682D02*
X177271182Y-116299557D01*
X177271182Y-116299557D02*
X177244245Y-116380369D01*
X177244245Y-116380369D02*
X177028746Y-116595868D01*
X178160117Y-116003245D02*
X177836868Y-116326494D01*
X177998492Y-116164870D02*
X177432807Y-115599184D01*
X177432807Y-115599184D02*
X177459744Y-115733871D01*
X177459744Y-115733871D02*
X177459744Y-115841621D01*
X177459744Y-115841621D02*
X177432807Y-115922433D01*
X178106242Y-114925749D02*
X177836868Y-115195123D01*
X177836868Y-115195123D02*
X178079305Y-115491434D01*
X178079305Y-115491434D02*
X178079305Y-115437560D01*
X178079305Y-115437560D02*
X178106242Y-115356747D01*
X178106242Y-115356747D02*
X178240929Y-115222060D01*
X178240929Y-115222060D02*
X178321741Y-115195123D01*
X178321741Y-115195123D02*
X178375616Y-115195123D01*
X178375616Y-115195123D02*
X178456428Y-115222060D01*
X178456428Y-115222060D02*
X178591115Y-115356747D01*
X178591115Y-115356747D02*
X178618053Y-115437560D01*
X178618053Y-115437560D02*
X178618053Y-115491434D01*
X178618053Y-115491434D02*
X178591115Y-115572247D01*
X178591115Y-115572247D02*
X178456428Y-115706934D01*
X178456428Y-115706934D02*
X178375616Y-115733871D01*
X178375616Y-115733871D02*
X178321741Y-115733871D01*
X176489998Y-101355868D02*
X176409185Y-101382805D01*
X176409185Y-101382805D02*
X176328373Y-101463618D01*
X176328373Y-101463618D02*
X176274498Y-101571367D01*
X176274498Y-101571367D02*
X176274498Y-101679117D01*
X176274498Y-101679117D02*
X176301436Y-101759929D01*
X176301436Y-101759929D02*
X176382248Y-101894616D01*
X176382248Y-101894616D02*
X176463060Y-101975428D01*
X176463060Y-101975428D02*
X176597747Y-102056241D01*
X176597747Y-102056241D02*
X176678560Y-102083178D01*
X176678560Y-102083178D02*
X176786309Y-102083178D01*
X176786309Y-102083178D02*
X176894059Y-102029303D01*
X176894059Y-102029303D02*
X176947934Y-101975428D01*
X176947934Y-101975428D02*
X177001808Y-101867679D01*
X177001808Y-101867679D02*
X177001808Y-101813804D01*
X177001808Y-101813804D02*
X176813247Y-101625242D01*
X176813247Y-101625242D02*
X176705497Y-101732992D01*
X177298120Y-101625242D02*
X176732434Y-101059557D01*
X176732434Y-101059557D02*
X176947934Y-100844057D01*
X176947934Y-100844057D02*
X177028746Y-100817120D01*
X177028746Y-100817120D02*
X177082621Y-100817120D01*
X177082621Y-100817120D02*
X177163433Y-100844057D01*
X177163433Y-100844057D02*
X177244245Y-100924870D01*
X177244245Y-100924870D02*
X177271182Y-101005682D01*
X177271182Y-101005682D02*
X177271182Y-101059557D01*
X177271182Y-101059557D02*
X177244245Y-101140369D01*
X177244245Y-101140369D02*
X177028746Y-101355868D01*
X178160117Y-100763245D02*
X177836868Y-101086494D01*
X177998492Y-100924870D02*
X177432807Y-100359184D01*
X177432807Y-100359184D02*
X177459744Y-100493871D01*
X177459744Y-100493871D02*
X177459744Y-100601621D01*
X177459744Y-100601621D02*
X177432807Y-100682433D01*
X177944618Y-99847373D02*
X177998492Y-99793499D01*
X177998492Y-99793499D02*
X178079305Y-99766561D01*
X178079305Y-99766561D02*
X178133179Y-99766561D01*
X178133179Y-99766561D02*
X178213992Y-99793499D01*
X178213992Y-99793499D02*
X178348679Y-99874311D01*
X178348679Y-99874311D02*
X178483366Y-100008998D01*
X178483366Y-100008998D02*
X178564178Y-100143685D01*
X178564178Y-100143685D02*
X178591115Y-100224497D01*
X178591115Y-100224497D02*
X178591115Y-100278372D01*
X178591115Y-100278372D02*
X178564178Y-100359184D01*
X178564178Y-100359184D02*
X178510303Y-100413059D01*
X178510303Y-100413059D02*
X178429491Y-100439996D01*
X178429491Y-100439996D02*
X178375616Y-100439996D01*
X178375616Y-100439996D02*
X178294804Y-100413059D01*
X178294804Y-100413059D02*
X178160117Y-100332247D01*
X178160117Y-100332247D02*
X178025430Y-100197560D01*
X178025430Y-100197560D02*
X177944618Y-100062873D01*
X177944618Y-100062873D02*
X177917680Y-99982060D01*
X177917680Y-99982060D02*
X177917680Y-99928186D01*
X177917680Y-99928186D02*
X177944618Y-99847373D01*
X202597998Y-91195868D02*
X202517185Y-91222805D01*
X202517185Y-91222805D02*
X202436373Y-91303618D01*
X202436373Y-91303618D02*
X202382498Y-91411367D01*
X202382498Y-91411367D02*
X202382498Y-91519117D01*
X202382498Y-91519117D02*
X202409436Y-91599929D01*
X202409436Y-91599929D02*
X202490248Y-91734616D01*
X202490248Y-91734616D02*
X202571060Y-91815428D01*
X202571060Y-91815428D02*
X202705747Y-91896241D01*
X202705747Y-91896241D02*
X202786560Y-91923178D01*
X202786560Y-91923178D02*
X202894309Y-91923178D01*
X202894309Y-91923178D02*
X203002059Y-91869303D01*
X203002059Y-91869303D02*
X203055934Y-91815428D01*
X203055934Y-91815428D02*
X203109808Y-91707679D01*
X203109808Y-91707679D02*
X203109808Y-91653804D01*
X203109808Y-91653804D02*
X202921247Y-91465242D01*
X202921247Y-91465242D02*
X202813497Y-91572992D01*
X203406120Y-91465242D02*
X202840434Y-90899557D01*
X202840434Y-90899557D02*
X203055934Y-90684057D01*
X203055934Y-90684057D02*
X203136746Y-90657120D01*
X203136746Y-90657120D02*
X203190621Y-90657120D01*
X203190621Y-90657120D02*
X203271433Y-90684057D01*
X203271433Y-90684057D02*
X203352245Y-90764870D01*
X203352245Y-90764870D02*
X203379182Y-90845682D01*
X203379182Y-90845682D02*
X203379182Y-90899557D01*
X203379182Y-90899557D02*
X203352245Y-90980369D01*
X203352245Y-90980369D02*
X203136746Y-91195868D01*
X203433057Y-90414683D02*
X203433057Y-90360809D01*
X203433057Y-90360809D02*
X203459995Y-90279996D01*
X203459995Y-90279996D02*
X203594682Y-90145309D01*
X203594682Y-90145309D02*
X203675494Y-90118372D01*
X203675494Y-90118372D02*
X203729369Y-90118372D01*
X203729369Y-90118372D02*
X203810181Y-90145309D01*
X203810181Y-90145309D02*
X203864056Y-90199184D01*
X203864056Y-90199184D02*
X203917930Y-90306934D01*
X203917930Y-90306934D02*
X203917930Y-90953431D01*
X203917930Y-90953431D02*
X204268117Y-90603245D01*
X204187305Y-89552686D02*
X204079555Y-89660436D01*
X204079555Y-89660436D02*
X204052618Y-89741248D01*
X204052618Y-89741248D02*
X204052618Y-89795123D01*
X204052618Y-89795123D02*
X204079555Y-89929810D01*
X204079555Y-89929810D02*
X204160367Y-90064497D01*
X204160367Y-90064497D02*
X204375866Y-90279996D01*
X204375866Y-90279996D02*
X204456679Y-90306934D01*
X204456679Y-90306934D02*
X204510553Y-90306934D01*
X204510553Y-90306934D02*
X204591366Y-90279996D01*
X204591366Y-90279996D02*
X204699115Y-90172247D01*
X204699115Y-90172247D02*
X204726053Y-90091434D01*
X204726053Y-90091434D02*
X204726053Y-90037560D01*
X204726053Y-90037560D02*
X204699115Y-89956747D01*
X204699115Y-89956747D02*
X204564428Y-89822060D01*
X204564428Y-89822060D02*
X204483616Y-89795123D01*
X204483616Y-89795123D02*
X204429741Y-89795123D01*
X204429741Y-89795123D02*
X204348929Y-89822060D01*
X204348929Y-89822060D02*
X204241179Y-89929810D01*
X204241179Y-89929810D02*
X204214242Y-90010622D01*
X204214242Y-90010622D02*
X204214242Y-90064497D01*
X204214242Y-90064497D02*
X204241179Y-90145309D01*
X177013372Y-83306494D02*
X176932560Y-83333431D01*
X176932560Y-83333431D02*
X176851748Y-83414243D01*
X176851748Y-83414243D02*
X176797873Y-83521993D01*
X176797873Y-83521993D02*
X176797873Y-83629742D01*
X176797873Y-83629742D02*
X176824810Y-83710555D01*
X176824810Y-83710555D02*
X176905623Y-83845242D01*
X176905623Y-83845242D02*
X176986435Y-83926054D01*
X176986435Y-83926054D02*
X177121122Y-84006866D01*
X177121122Y-84006866D02*
X177201934Y-84033803D01*
X177201934Y-84033803D02*
X177309684Y-84033803D01*
X177309684Y-84033803D02*
X177417433Y-83979929D01*
X177417433Y-83979929D02*
X177471308Y-83926054D01*
X177471308Y-83926054D02*
X177525183Y-83818304D01*
X177525183Y-83818304D02*
X177525183Y-83764429D01*
X177525183Y-83764429D02*
X177336621Y-83575868D01*
X177336621Y-83575868D02*
X177228871Y-83683617D01*
X177821494Y-83575868D02*
X177255809Y-83010182D01*
X177255809Y-83010182D02*
X177471308Y-82794683D01*
X177471308Y-82794683D02*
X177552120Y-82767746D01*
X177552120Y-82767746D02*
X177605995Y-82767746D01*
X177605995Y-82767746D02*
X177686807Y-82794683D01*
X177686807Y-82794683D02*
X177767619Y-82875495D01*
X177767619Y-82875495D02*
X177794557Y-82956307D01*
X177794557Y-82956307D02*
X177794557Y-83010182D01*
X177794557Y-83010182D02*
X177767619Y-83090994D01*
X177767619Y-83090994D02*
X177552120Y-83306494D01*
X178090868Y-82175123D02*
X177821494Y-82444497D01*
X177821494Y-82444497D02*
X178063931Y-82740808D01*
X178063931Y-82740808D02*
X178063931Y-82686933D01*
X178063931Y-82686933D02*
X178090868Y-82606121D01*
X178090868Y-82606121D02*
X178225555Y-82471434D01*
X178225555Y-82471434D02*
X178306367Y-82444497D01*
X178306367Y-82444497D02*
X178360242Y-82444497D01*
X178360242Y-82444497D02*
X178441054Y-82471434D01*
X178441054Y-82471434D02*
X178575741Y-82606121D01*
X178575741Y-82606121D02*
X178602679Y-82686933D01*
X178602679Y-82686933D02*
X178602679Y-82740808D01*
X178602679Y-82740808D02*
X178575741Y-82821620D01*
X178575741Y-82821620D02*
X178441054Y-82956307D01*
X178441054Y-82956307D02*
X178360242Y-82983245D01*
X178360242Y-82983245D02*
X178306367Y-82983245D01*
X202597998Y-114055868D02*
X202517185Y-114082805D01*
X202517185Y-114082805D02*
X202436373Y-114163618D01*
X202436373Y-114163618D02*
X202382498Y-114271367D01*
X202382498Y-114271367D02*
X202382498Y-114379117D01*
X202382498Y-114379117D02*
X202409436Y-114459929D01*
X202409436Y-114459929D02*
X202490248Y-114594616D01*
X202490248Y-114594616D02*
X202571060Y-114675428D01*
X202571060Y-114675428D02*
X202705747Y-114756241D01*
X202705747Y-114756241D02*
X202786560Y-114783178D01*
X202786560Y-114783178D02*
X202894309Y-114783178D01*
X202894309Y-114783178D02*
X203002059Y-114729303D01*
X203002059Y-114729303D02*
X203055934Y-114675428D01*
X203055934Y-114675428D02*
X203109808Y-114567679D01*
X203109808Y-114567679D02*
X203109808Y-114513804D01*
X203109808Y-114513804D02*
X202921247Y-114325242D01*
X202921247Y-114325242D02*
X202813497Y-114432992D01*
X203406120Y-114325242D02*
X202840434Y-113759557D01*
X202840434Y-113759557D02*
X203055934Y-113544057D01*
X203055934Y-113544057D02*
X203136746Y-113517120D01*
X203136746Y-113517120D02*
X203190621Y-113517120D01*
X203190621Y-113517120D02*
X203271433Y-113544057D01*
X203271433Y-113544057D02*
X203352245Y-113624870D01*
X203352245Y-113624870D02*
X203379182Y-113705682D01*
X203379182Y-113705682D02*
X203379182Y-113759557D01*
X203379182Y-113759557D02*
X203352245Y-113840369D01*
X203352245Y-113840369D02*
X203136746Y-114055868D01*
X204268117Y-113463245D02*
X203944868Y-113786494D01*
X204106492Y-113624870D02*
X203540807Y-113059184D01*
X203540807Y-113059184D02*
X203567744Y-113193871D01*
X203567744Y-113193871D02*
X203567744Y-113301621D01*
X203567744Y-113301621D02*
X203540807Y-113382433D01*
X203890993Y-112708998D02*
X204268117Y-112331874D01*
X204268117Y-112331874D02*
X204591366Y-113139996D01*
X202422407Y-76033584D02*
X202772593Y-75683398D01*
X202772593Y-75683398D02*
X202799531Y-76087459D01*
X202799531Y-76087459D02*
X202880343Y-76006646D01*
X202880343Y-76006646D02*
X202961155Y-75979709D01*
X202961155Y-75979709D02*
X203015030Y-75979709D01*
X203015030Y-75979709D02*
X203095842Y-76006646D01*
X203095842Y-76006646D02*
X203230529Y-76141333D01*
X203230529Y-76141333D02*
X203257467Y-76222146D01*
X203257467Y-76222146D02*
X203257467Y-76276020D01*
X203257467Y-76276020D02*
X203230529Y-76356833D01*
X203230529Y-76356833D02*
X203068905Y-76518457D01*
X203068905Y-76518457D02*
X202988093Y-76545394D01*
X202988093Y-76545394D02*
X202934218Y-76545394D01*
X202934218Y-75521773D02*
X203688465Y-75898897D01*
X203688465Y-75898897D02*
X203311342Y-75144649D01*
X203446028Y-75009963D02*
X203796215Y-74659776D01*
X203796215Y-74659776D02*
X203823152Y-75063837D01*
X203823152Y-75063837D02*
X203903964Y-74983025D01*
X203903964Y-74983025D02*
X203984776Y-74956088D01*
X203984776Y-74956088D02*
X204038651Y-74956088D01*
X204038651Y-74956088D02*
X204119464Y-74983025D01*
X204119464Y-74983025D02*
X204254151Y-75117712D01*
X204254151Y-75117712D02*
X204281088Y-75198524D01*
X204281088Y-75198524D02*
X204281088Y-75252399D01*
X204281088Y-75252399D02*
X204254151Y-75333211D01*
X204254151Y-75333211D02*
X204092526Y-75494836D01*
X204092526Y-75494836D02*
X204011714Y-75521773D01*
X204011714Y-75521773D02*
X203957839Y-75521773D01*
X204523525Y-75171587D02*
X204954523Y-74740588D01*
X204739024Y-74255715D02*
X204927586Y-74067153D01*
X205304709Y-74282652D02*
X205035335Y-74552026D01*
X205035335Y-74552026D02*
X204469650Y-73986341D01*
X204469650Y-73986341D02*
X204739024Y-73716967D01*
X205547146Y-74040215D02*
X204981461Y-73474530D01*
X204981461Y-73474530D02*
X205870395Y-73716967D01*
X205870395Y-73716967D02*
X205304710Y-73151281D01*
X176343998Y-103895868D02*
X176263185Y-103922805D01*
X176263185Y-103922805D02*
X176182373Y-104003618D01*
X176182373Y-104003618D02*
X176128498Y-104111367D01*
X176128498Y-104111367D02*
X176128498Y-104219117D01*
X176128498Y-104219117D02*
X176155436Y-104299929D01*
X176155436Y-104299929D02*
X176236248Y-104434616D01*
X176236248Y-104434616D02*
X176317060Y-104515428D01*
X176317060Y-104515428D02*
X176451747Y-104596241D01*
X176451747Y-104596241D02*
X176532560Y-104623178D01*
X176532560Y-104623178D02*
X176640309Y-104623178D01*
X176640309Y-104623178D02*
X176748059Y-104569303D01*
X176748059Y-104569303D02*
X176801934Y-104515428D01*
X176801934Y-104515428D02*
X176855808Y-104407679D01*
X176855808Y-104407679D02*
X176855808Y-104353804D01*
X176855808Y-104353804D02*
X176667247Y-104165242D01*
X176667247Y-104165242D02*
X176559497Y-104272992D01*
X177152120Y-104165242D02*
X176586434Y-103599557D01*
X176586434Y-103599557D02*
X176801934Y-103384057D01*
X176801934Y-103384057D02*
X176882746Y-103357120D01*
X176882746Y-103357120D02*
X176936621Y-103357120D01*
X176936621Y-103357120D02*
X177017433Y-103384057D01*
X177017433Y-103384057D02*
X177098245Y-103464870D01*
X177098245Y-103464870D02*
X177125182Y-103545682D01*
X177125182Y-103545682D02*
X177125182Y-103599557D01*
X177125182Y-103599557D02*
X177098245Y-103680369D01*
X177098245Y-103680369D02*
X176882746Y-103895868D01*
X178014117Y-103303245D02*
X177690868Y-103626494D01*
X177852492Y-103464870D02*
X177286807Y-102899184D01*
X177286807Y-102899184D02*
X177313744Y-103033871D01*
X177313744Y-103033871D02*
X177313744Y-103141621D01*
X177313744Y-103141621D02*
X177286807Y-103222433D01*
X178552865Y-102764497D02*
X178229616Y-103087746D01*
X178391240Y-102926121D02*
X177825555Y-102360436D01*
X177825555Y-102360436D02*
X177852492Y-102495123D01*
X177852492Y-102495123D02*
X177852492Y-102602873D01*
X177852492Y-102602873D02*
X177825555Y-102683685D01*
X177013372Y-88386494D02*
X176932560Y-88413431D01*
X176932560Y-88413431D02*
X176851748Y-88494243D01*
X176851748Y-88494243D02*
X176797873Y-88601993D01*
X176797873Y-88601993D02*
X176797873Y-88709742D01*
X176797873Y-88709742D02*
X176824810Y-88790555D01*
X176824810Y-88790555D02*
X176905623Y-88925242D01*
X176905623Y-88925242D02*
X176986435Y-89006054D01*
X176986435Y-89006054D02*
X177121122Y-89086866D01*
X177121122Y-89086866D02*
X177201934Y-89113803D01*
X177201934Y-89113803D02*
X177309684Y-89113803D01*
X177309684Y-89113803D02*
X177417433Y-89059929D01*
X177417433Y-89059929D02*
X177471308Y-89006054D01*
X177471308Y-89006054D02*
X177525183Y-88898304D01*
X177525183Y-88898304D02*
X177525183Y-88844429D01*
X177525183Y-88844429D02*
X177336621Y-88655868D01*
X177336621Y-88655868D02*
X177228871Y-88763617D01*
X177821494Y-88655868D02*
X177255809Y-88090182D01*
X177255809Y-88090182D02*
X177471308Y-87874683D01*
X177471308Y-87874683D02*
X177552120Y-87847746D01*
X177552120Y-87847746D02*
X177605995Y-87847746D01*
X177605995Y-87847746D02*
X177686807Y-87874683D01*
X177686807Y-87874683D02*
X177767619Y-87955495D01*
X177767619Y-87955495D02*
X177794557Y-88036307D01*
X177794557Y-88036307D02*
X177794557Y-88090182D01*
X177794557Y-88090182D02*
X177767619Y-88170994D01*
X177767619Y-88170994D02*
X177552120Y-88386494D01*
X178063931Y-87282060D02*
X177956181Y-87389810D01*
X177956181Y-87389810D02*
X177929244Y-87470622D01*
X177929244Y-87470622D02*
X177929244Y-87524497D01*
X177929244Y-87524497D02*
X177956181Y-87659184D01*
X177956181Y-87659184D02*
X178036993Y-87793871D01*
X178036993Y-87793871D02*
X178252493Y-88009370D01*
X178252493Y-88009370D02*
X178333305Y-88036307D01*
X178333305Y-88036307D02*
X178387180Y-88036307D01*
X178387180Y-88036307D02*
X178467992Y-88009370D01*
X178467992Y-88009370D02*
X178575741Y-87901620D01*
X178575741Y-87901620D02*
X178602679Y-87820808D01*
X178602679Y-87820808D02*
X178602679Y-87766933D01*
X178602679Y-87766933D02*
X178575741Y-87686121D01*
X178575741Y-87686121D02*
X178441054Y-87551434D01*
X178441054Y-87551434D02*
X178360242Y-87524497D01*
X178360242Y-87524497D02*
X178306367Y-87524497D01*
X178306367Y-87524497D02*
X178225555Y-87551434D01*
X178225555Y-87551434D02*
X178117806Y-87659184D01*
X178117806Y-87659184D02*
X178090868Y-87739996D01*
X178090868Y-87739996D02*
X178090868Y-87793871D01*
X178090868Y-87793871D02*
X178117806Y-87874683D01*
X202420749Y-71145242D02*
X203174996Y-71522366D01*
X203174996Y-71522366D02*
X202797873Y-70768118D01*
X203498245Y-71145242D02*
X203605995Y-71091367D01*
X203605995Y-71091367D02*
X203740682Y-70956680D01*
X203740682Y-70956680D02*
X203767619Y-70875868D01*
X203767619Y-70875868D02*
X203767619Y-70821993D01*
X203767619Y-70821993D02*
X203740682Y-70741181D01*
X203740682Y-70741181D02*
X203686807Y-70687306D01*
X203686807Y-70687306D02*
X203605995Y-70660369D01*
X203605995Y-70660369D02*
X203552120Y-70660369D01*
X203552120Y-70660369D02*
X203471308Y-70687306D01*
X203471308Y-70687306D02*
X203336621Y-70768118D01*
X203336621Y-70768118D02*
X203255808Y-70795056D01*
X203255808Y-70795056D02*
X203201934Y-70795056D01*
X203201934Y-70795056D02*
X203121121Y-70768118D01*
X203121121Y-70768118D02*
X203067247Y-70714244D01*
X203067247Y-70714244D02*
X203040309Y-70633431D01*
X203040309Y-70633431D02*
X203040309Y-70579557D01*
X203040309Y-70579557D02*
X203067247Y-70498744D01*
X203067247Y-70498744D02*
X203201934Y-70364057D01*
X203201934Y-70364057D02*
X203309683Y-70310183D01*
X203929244Y-70229370D02*
X204198618Y-70498744D01*
X203444370Y-70121621D02*
X203929244Y-70229370D01*
X203929244Y-70229370D02*
X203821494Y-69744497D01*
X204521866Y-70121621D02*
X204629616Y-70067746D01*
X204629616Y-70067746D02*
X204764303Y-69933059D01*
X204764303Y-69933059D02*
X204791240Y-69852247D01*
X204791240Y-69852247D02*
X204791240Y-69798372D01*
X204791240Y-69798372D02*
X204764303Y-69717560D01*
X204764303Y-69717560D02*
X204710428Y-69663685D01*
X204710428Y-69663685D02*
X204629616Y-69636748D01*
X204629616Y-69636748D02*
X204575741Y-69636748D01*
X204575741Y-69636748D02*
X204494929Y-69663685D01*
X204494929Y-69663685D02*
X204360242Y-69744497D01*
X204360242Y-69744497D02*
X204279430Y-69771435D01*
X204279430Y-69771435D02*
X204225555Y-69771435D01*
X204225555Y-69771435D02*
X204144743Y-69744497D01*
X204144743Y-69744497D02*
X204090868Y-69690622D01*
X204090868Y-69690622D02*
X204063930Y-69609810D01*
X204063930Y-69609810D02*
X204063930Y-69555935D01*
X204063930Y-69555935D02*
X204090868Y-69475123D01*
X204090868Y-69475123D02*
X204225555Y-69340436D01*
X204225555Y-69340436D02*
X204333304Y-69286561D01*
X176913372Y-75686494D02*
X176832560Y-75713431D01*
X176832560Y-75713431D02*
X176751748Y-75794243D01*
X176751748Y-75794243D02*
X176697873Y-75901993D01*
X176697873Y-75901993D02*
X176697873Y-76009742D01*
X176697873Y-76009742D02*
X176724810Y-76090555D01*
X176724810Y-76090555D02*
X176805623Y-76225242D01*
X176805623Y-76225242D02*
X176886435Y-76306054D01*
X176886435Y-76306054D02*
X177021122Y-76386866D01*
X177021122Y-76386866D02*
X177101934Y-76413803D01*
X177101934Y-76413803D02*
X177209684Y-76413803D01*
X177209684Y-76413803D02*
X177317433Y-76359929D01*
X177317433Y-76359929D02*
X177371308Y-76306054D01*
X177371308Y-76306054D02*
X177425183Y-76198304D01*
X177425183Y-76198304D02*
X177425183Y-76144429D01*
X177425183Y-76144429D02*
X177236621Y-75955868D01*
X177236621Y-75955868D02*
X177128871Y-76063617D01*
X177721494Y-75955868D02*
X177155809Y-75390182D01*
X177155809Y-75390182D02*
X177371308Y-75174683D01*
X177371308Y-75174683D02*
X177452120Y-75147746D01*
X177452120Y-75147746D02*
X177505995Y-75147746D01*
X177505995Y-75147746D02*
X177586807Y-75174683D01*
X177586807Y-75174683D02*
X177667619Y-75255495D01*
X177667619Y-75255495D02*
X177694557Y-75336307D01*
X177694557Y-75336307D02*
X177694557Y-75390182D01*
X177694557Y-75390182D02*
X177667619Y-75470994D01*
X177667619Y-75470994D02*
X177452120Y-75686494D01*
X177748432Y-74905309D02*
X177748432Y-74851434D01*
X177748432Y-74851434D02*
X177775369Y-74770622D01*
X177775369Y-74770622D02*
X177910056Y-74635935D01*
X177910056Y-74635935D02*
X177990868Y-74608998D01*
X177990868Y-74608998D02*
X178044743Y-74608998D01*
X178044743Y-74608998D02*
X178125555Y-74635935D01*
X178125555Y-74635935D02*
X178179430Y-74689810D01*
X178179430Y-74689810D02*
X178233305Y-74797559D01*
X178233305Y-74797559D02*
X178233305Y-75444057D01*
X178233305Y-75444057D02*
X178583491Y-75093871D01*
X194404761Y-118599200D02*
X194519047Y-118637295D01*
X194519047Y-118637295D02*
X194709523Y-118637295D01*
X194709523Y-118637295D02*
X194785714Y-118599200D01*
X194785714Y-118599200D02*
X194823809Y-118561104D01*
X194823809Y-118561104D02*
X194861904Y-118484914D01*
X194861904Y-118484914D02*
X194861904Y-118408723D01*
X194861904Y-118408723D02*
X194823809Y-118332533D01*
X194823809Y-118332533D02*
X194785714Y-118294438D01*
X194785714Y-118294438D02*
X194709523Y-118256342D01*
X194709523Y-118256342D02*
X194557142Y-118218247D01*
X194557142Y-118218247D02*
X194480952Y-118180152D01*
X194480952Y-118180152D02*
X194442857Y-118142057D01*
X194442857Y-118142057D02*
X194404761Y-118065866D01*
X194404761Y-118065866D02*
X194404761Y-117989676D01*
X194404761Y-117989676D02*
X194442857Y-117913485D01*
X194442857Y-117913485D02*
X194480952Y-117875390D01*
X194480952Y-117875390D02*
X194557142Y-117837295D01*
X194557142Y-117837295D02*
X194747619Y-117837295D01*
X194747619Y-117837295D02*
X194861904Y-117875390D01*
X195128571Y-117837295D02*
X195319047Y-118637295D01*
X195319047Y-118637295D02*
X195471428Y-118065866D01*
X195471428Y-118065866D02*
X195623809Y-118637295D01*
X195623809Y-118637295D02*
X195814286Y-117837295D01*
X196119048Y-118637295D02*
X196119048Y-117837295D01*
X196119048Y-117837295D02*
X196309524Y-117837295D01*
X196309524Y-117837295D02*
X196423810Y-117875390D01*
X196423810Y-117875390D02*
X196500000Y-117951580D01*
X196500000Y-117951580D02*
X196538095Y-118027771D01*
X196538095Y-118027771D02*
X196576191Y-118180152D01*
X196576191Y-118180152D02*
X196576191Y-118294438D01*
X196576191Y-118294438D02*
X196538095Y-118446819D01*
X196538095Y-118446819D02*
X196500000Y-118523009D01*
X196500000Y-118523009D02*
X196423810Y-118599200D01*
X196423810Y-118599200D02*
X196309524Y-118637295D01*
X196309524Y-118637295D02*
X196119048Y-118637295D01*
X196919048Y-118637295D02*
X196919048Y-117837295D01*
X197452381Y-117837295D02*
X197604762Y-117837295D01*
X197604762Y-117837295D02*
X197680952Y-117875390D01*
X197680952Y-117875390D02*
X197757143Y-117951580D01*
X197757143Y-117951580D02*
X197795238Y-118103961D01*
X197795238Y-118103961D02*
X197795238Y-118370628D01*
X197795238Y-118370628D02*
X197757143Y-118523009D01*
X197757143Y-118523009D02*
X197680952Y-118599200D01*
X197680952Y-118599200D02*
X197604762Y-118637295D01*
X197604762Y-118637295D02*
X197452381Y-118637295D01*
X197452381Y-118637295D02*
X197376190Y-118599200D01*
X197376190Y-118599200D02*
X197300000Y-118523009D01*
X197300000Y-118523009D02*
X197261904Y-118370628D01*
X197261904Y-118370628D02*
X197261904Y-118103961D01*
X197261904Y-118103961D02*
X197300000Y-117951580D01*
X197300000Y-117951580D02*
X197376190Y-117875390D01*
X197376190Y-117875390D02*
X197452381Y-117837295D01*
X202597998Y-96275868D02*
X202517185Y-96302805D01*
X202517185Y-96302805D02*
X202436373Y-96383618D01*
X202436373Y-96383618D02*
X202382498Y-96491367D01*
X202382498Y-96491367D02*
X202382498Y-96599117D01*
X202382498Y-96599117D02*
X202409436Y-96679929D01*
X202409436Y-96679929D02*
X202490248Y-96814616D01*
X202490248Y-96814616D02*
X202571060Y-96895428D01*
X202571060Y-96895428D02*
X202705747Y-96976241D01*
X202705747Y-96976241D02*
X202786560Y-97003178D01*
X202786560Y-97003178D02*
X202894309Y-97003178D01*
X202894309Y-97003178D02*
X203002059Y-96949303D01*
X203002059Y-96949303D02*
X203055934Y-96895428D01*
X203055934Y-96895428D02*
X203109808Y-96787679D01*
X203109808Y-96787679D02*
X203109808Y-96733804D01*
X203109808Y-96733804D02*
X202921247Y-96545242D01*
X202921247Y-96545242D02*
X202813497Y-96652992D01*
X203406120Y-96545242D02*
X202840434Y-95979557D01*
X202840434Y-95979557D02*
X203055934Y-95764057D01*
X203055934Y-95764057D02*
X203136746Y-95737120D01*
X203136746Y-95737120D02*
X203190621Y-95737120D01*
X203190621Y-95737120D02*
X203271433Y-95764057D01*
X203271433Y-95764057D02*
X203352245Y-95844870D01*
X203352245Y-95844870D02*
X203379182Y-95925682D01*
X203379182Y-95925682D02*
X203379182Y-95979557D01*
X203379182Y-95979557D02*
X203352245Y-96060369D01*
X203352245Y-96060369D02*
X203136746Y-96275868D01*
X203433057Y-95494683D02*
X203433057Y-95440809D01*
X203433057Y-95440809D02*
X203459995Y-95359996D01*
X203459995Y-95359996D02*
X203594682Y-95225309D01*
X203594682Y-95225309D02*
X203675494Y-95198372D01*
X203675494Y-95198372D02*
X203729369Y-95198372D01*
X203729369Y-95198372D02*
X203810181Y-95225309D01*
X203810181Y-95225309D02*
X203864056Y-95279184D01*
X203864056Y-95279184D02*
X203917930Y-95386934D01*
X203917930Y-95386934D02*
X203917930Y-96033431D01*
X203917930Y-96033431D02*
X204268117Y-95683245D01*
X203971805Y-94955935D02*
X203971805Y-94902060D01*
X203971805Y-94902060D02*
X203998743Y-94821248D01*
X203998743Y-94821248D02*
X204133430Y-94686561D01*
X204133430Y-94686561D02*
X204214242Y-94659624D01*
X204214242Y-94659624D02*
X204268117Y-94659624D01*
X204268117Y-94659624D02*
X204348929Y-94686561D01*
X204348929Y-94686561D02*
X204402804Y-94740436D01*
X204402804Y-94740436D02*
X204456679Y-94848186D01*
X204456679Y-94848186D02*
X204456679Y-95494683D01*
X204456679Y-95494683D02*
X204806865Y-95144497D01*
X176913372Y-70596494D02*
X176832560Y-70623431D01*
X176832560Y-70623431D02*
X176751748Y-70704243D01*
X176751748Y-70704243D02*
X176697873Y-70811993D01*
X176697873Y-70811993D02*
X176697873Y-70919742D01*
X176697873Y-70919742D02*
X176724810Y-71000555D01*
X176724810Y-71000555D02*
X176805623Y-71135242D01*
X176805623Y-71135242D02*
X176886435Y-71216054D01*
X176886435Y-71216054D02*
X177021122Y-71296866D01*
X177021122Y-71296866D02*
X177101934Y-71323803D01*
X177101934Y-71323803D02*
X177209684Y-71323803D01*
X177209684Y-71323803D02*
X177317433Y-71269929D01*
X177317433Y-71269929D02*
X177371308Y-71216054D01*
X177371308Y-71216054D02*
X177425183Y-71108304D01*
X177425183Y-71108304D02*
X177425183Y-71054429D01*
X177425183Y-71054429D02*
X177236621Y-70865868D01*
X177236621Y-70865868D02*
X177128871Y-70973617D01*
X177721494Y-70865868D02*
X177155809Y-70300182D01*
X177155809Y-70300182D02*
X177371308Y-70084683D01*
X177371308Y-70084683D02*
X177452120Y-70057746D01*
X177452120Y-70057746D02*
X177505995Y-70057746D01*
X177505995Y-70057746D02*
X177586807Y-70084683D01*
X177586807Y-70084683D02*
X177667619Y-70165495D01*
X177667619Y-70165495D02*
X177694557Y-70246307D01*
X177694557Y-70246307D02*
X177694557Y-70300182D01*
X177694557Y-70300182D02*
X177667619Y-70380994D01*
X177667619Y-70380994D02*
X177452120Y-70596494D01*
X178583491Y-70003871D02*
X178260242Y-70327120D01*
X178421867Y-70165495D02*
X177856181Y-69599810D01*
X177856181Y-69599810D02*
X177883119Y-69734497D01*
X177883119Y-69734497D02*
X177883119Y-69842246D01*
X177883119Y-69842246D02*
X177856181Y-69923059D01*
X177113372Y-90896494D02*
X177032560Y-90923431D01*
X177032560Y-90923431D02*
X176951748Y-91004243D01*
X176951748Y-91004243D02*
X176897873Y-91111993D01*
X176897873Y-91111993D02*
X176897873Y-91219742D01*
X176897873Y-91219742D02*
X176924810Y-91300555D01*
X176924810Y-91300555D02*
X177005623Y-91435242D01*
X177005623Y-91435242D02*
X177086435Y-91516054D01*
X177086435Y-91516054D02*
X177221122Y-91596866D01*
X177221122Y-91596866D02*
X177301934Y-91623803D01*
X177301934Y-91623803D02*
X177409684Y-91623803D01*
X177409684Y-91623803D02*
X177517433Y-91569929D01*
X177517433Y-91569929D02*
X177571308Y-91516054D01*
X177571308Y-91516054D02*
X177625183Y-91408304D01*
X177625183Y-91408304D02*
X177625183Y-91354429D01*
X177625183Y-91354429D02*
X177436621Y-91165868D01*
X177436621Y-91165868D02*
X177328871Y-91273617D01*
X177921494Y-91165868D02*
X177355809Y-90600182D01*
X177355809Y-90600182D02*
X177571308Y-90384683D01*
X177571308Y-90384683D02*
X177652120Y-90357746D01*
X177652120Y-90357746D02*
X177705995Y-90357746D01*
X177705995Y-90357746D02*
X177786807Y-90384683D01*
X177786807Y-90384683D02*
X177867619Y-90465495D01*
X177867619Y-90465495D02*
X177894557Y-90546307D01*
X177894557Y-90546307D02*
X177894557Y-90600182D01*
X177894557Y-90600182D02*
X177867619Y-90680994D01*
X177867619Y-90680994D02*
X177652120Y-90896494D01*
X177867619Y-90088372D02*
X178244743Y-89711248D01*
X178244743Y-89711248D02*
X178567992Y-90519370D01*
X176343998Y-106435868D02*
X176263185Y-106462805D01*
X176263185Y-106462805D02*
X176182373Y-106543618D01*
X176182373Y-106543618D02*
X176128498Y-106651367D01*
X176128498Y-106651367D02*
X176128498Y-106759117D01*
X176128498Y-106759117D02*
X176155436Y-106839929D01*
X176155436Y-106839929D02*
X176236248Y-106974616D01*
X176236248Y-106974616D02*
X176317060Y-107055428D01*
X176317060Y-107055428D02*
X176451747Y-107136241D01*
X176451747Y-107136241D02*
X176532560Y-107163178D01*
X176532560Y-107163178D02*
X176640309Y-107163178D01*
X176640309Y-107163178D02*
X176748059Y-107109303D01*
X176748059Y-107109303D02*
X176801934Y-107055428D01*
X176801934Y-107055428D02*
X176855808Y-106947679D01*
X176855808Y-106947679D02*
X176855808Y-106893804D01*
X176855808Y-106893804D02*
X176667247Y-106705242D01*
X176667247Y-106705242D02*
X176559497Y-106812992D01*
X177152120Y-106705242D02*
X176586434Y-106139557D01*
X176586434Y-106139557D02*
X176801934Y-105924057D01*
X176801934Y-105924057D02*
X176882746Y-105897120D01*
X176882746Y-105897120D02*
X176936621Y-105897120D01*
X176936621Y-105897120D02*
X177017433Y-105924057D01*
X177017433Y-105924057D02*
X177098245Y-106004870D01*
X177098245Y-106004870D02*
X177125182Y-106085682D01*
X177125182Y-106085682D02*
X177125182Y-106139557D01*
X177125182Y-106139557D02*
X177098245Y-106220369D01*
X177098245Y-106220369D02*
X176882746Y-106435868D01*
X178014117Y-105843245D02*
X177690868Y-106166494D01*
X177852492Y-106004870D02*
X177286807Y-105439184D01*
X177286807Y-105439184D02*
X177313744Y-105573871D01*
X177313744Y-105573871D02*
X177313744Y-105681621D01*
X177313744Y-105681621D02*
X177286807Y-105762433D01*
X177717805Y-105115935D02*
X177717805Y-105062060D01*
X177717805Y-105062060D02*
X177744743Y-104981248D01*
X177744743Y-104981248D02*
X177879430Y-104846561D01*
X177879430Y-104846561D02*
X177960242Y-104819624D01*
X177960242Y-104819624D02*
X178014117Y-104819624D01*
X178014117Y-104819624D02*
X178094929Y-104846561D01*
X178094929Y-104846561D02*
X178148804Y-104900436D01*
X178148804Y-104900436D02*
X178202679Y-105008186D01*
X178202679Y-105008186D02*
X178202679Y-105654683D01*
X178202679Y-105654683D02*
X178552865Y-105304497D01*
X177013372Y-78226494D02*
X176932560Y-78253431D01*
X176932560Y-78253431D02*
X176851748Y-78334243D01*
X176851748Y-78334243D02*
X176797873Y-78441993D01*
X176797873Y-78441993D02*
X176797873Y-78549742D01*
X176797873Y-78549742D02*
X176824810Y-78630555D01*
X176824810Y-78630555D02*
X176905623Y-78765242D01*
X176905623Y-78765242D02*
X176986435Y-78846054D01*
X176986435Y-78846054D02*
X177121122Y-78926866D01*
X177121122Y-78926866D02*
X177201934Y-78953803D01*
X177201934Y-78953803D02*
X177309684Y-78953803D01*
X177309684Y-78953803D02*
X177417433Y-78899929D01*
X177417433Y-78899929D02*
X177471308Y-78846054D01*
X177471308Y-78846054D02*
X177525183Y-78738304D01*
X177525183Y-78738304D02*
X177525183Y-78684429D01*
X177525183Y-78684429D02*
X177336621Y-78495868D01*
X177336621Y-78495868D02*
X177228871Y-78603617D01*
X177821494Y-78495868D02*
X177255809Y-77930182D01*
X177255809Y-77930182D02*
X177471308Y-77714683D01*
X177471308Y-77714683D02*
X177552120Y-77687746D01*
X177552120Y-77687746D02*
X177605995Y-77687746D01*
X177605995Y-77687746D02*
X177686807Y-77714683D01*
X177686807Y-77714683D02*
X177767619Y-77795495D01*
X177767619Y-77795495D02*
X177794557Y-77876307D01*
X177794557Y-77876307D02*
X177794557Y-77930182D01*
X177794557Y-77930182D02*
X177767619Y-78010994D01*
X177767619Y-78010994D02*
X177552120Y-78226494D01*
X177767619Y-77418372D02*
X178117806Y-77068185D01*
X178117806Y-77068185D02*
X178144743Y-77472246D01*
X178144743Y-77472246D02*
X178225555Y-77391434D01*
X178225555Y-77391434D02*
X178306367Y-77364497D01*
X178306367Y-77364497D02*
X178360242Y-77364497D01*
X178360242Y-77364497D02*
X178441054Y-77391434D01*
X178441054Y-77391434D02*
X178575741Y-77526121D01*
X178575741Y-77526121D02*
X178602679Y-77606933D01*
X178602679Y-77606933D02*
X178602679Y-77660808D01*
X178602679Y-77660808D02*
X178575741Y-77741620D01*
X178575741Y-77741620D02*
X178414117Y-77903245D01*
X178414117Y-77903245D02*
X178333305Y-77930182D01*
X178333305Y-77930182D02*
X178279430Y-77930182D01*
X202597998Y-116595868D02*
X202517185Y-116622805D01*
X202517185Y-116622805D02*
X202436373Y-116703618D01*
X202436373Y-116703618D02*
X202382498Y-116811367D01*
X202382498Y-116811367D02*
X202382498Y-116919117D01*
X202382498Y-116919117D02*
X202409436Y-116999929D01*
X202409436Y-116999929D02*
X202490248Y-117134616D01*
X202490248Y-117134616D02*
X202571060Y-117215428D01*
X202571060Y-117215428D02*
X202705747Y-117296241D01*
X202705747Y-117296241D02*
X202786560Y-117323178D01*
X202786560Y-117323178D02*
X202894309Y-117323178D01*
X202894309Y-117323178D02*
X203002059Y-117269303D01*
X203002059Y-117269303D02*
X203055934Y-117215428D01*
X203055934Y-117215428D02*
X203109808Y-117107679D01*
X203109808Y-117107679D02*
X203109808Y-117053804D01*
X203109808Y-117053804D02*
X202921247Y-116865242D01*
X202921247Y-116865242D02*
X202813497Y-116972992D01*
X203406120Y-116865242D02*
X202840434Y-116299557D01*
X202840434Y-116299557D02*
X203055934Y-116084057D01*
X203055934Y-116084057D02*
X203136746Y-116057120D01*
X203136746Y-116057120D02*
X203190621Y-116057120D01*
X203190621Y-116057120D02*
X203271433Y-116084057D01*
X203271433Y-116084057D02*
X203352245Y-116164870D01*
X203352245Y-116164870D02*
X203379182Y-116245682D01*
X203379182Y-116245682D02*
X203379182Y-116299557D01*
X203379182Y-116299557D02*
X203352245Y-116380369D01*
X203352245Y-116380369D02*
X203136746Y-116595868D01*
X204268117Y-116003245D02*
X203944868Y-116326494D01*
X204106492Y-116164870D02*
X203540807Y-115599184D01*
X203540807Y-115599184D02*
X203567744Y-115733871D01*
X203567744Y-115733871D02*
X203567744Y-115841621D01*
X203567744Y-115841621D02*
X203540807Y-115922433D01*
X204187305Y-114952686D02*
X204079555Y-115060436D01*
X204079555Y-115060436D02*
X204052618Y-115141248D01*
X204052618Y-115141248D02*
X204052618Y-115195123D01*
X204052618Y-115195123D02*
X204079555Y-115329810D01*
X204079555Y-115329810D02*
X204160367Y-115464497D01*
X204160367Y-115464497D02*
X204375866Y-115679996D01*
X204375866Y-115679996D02*
X204456679Y-115706934D01*
X204456679Y-115706934D02*
X204510553Y-115706934D01*
X204510553Y-115706934D02*
X204591366Y-115679996D01*
X204591366Y-115679996D02*
X204699115Y-115572247D01*
X204699115Y-115572247D02*
X204726053Y-115491434D01*
X204726053Y-115491434D02*
X204726053Y-115437560D01*
X204726053Y-115437560D02*
X204699115Y-115356747D01*
X204699115Y-115356747D02*
X204564428Y-115222060D01*
X204564428Y-115222060D02*
X204483616Y-115195123D01*
X204483616Y-115195123D02*
X204429741Y-115195123D01*
X204429741Y-115195123D02*
X204348929Y-115222060D01*
X204348929Y-115222060D02*
X204241179Y-115329810D01*
X204241179Y-115329810D02*
X204214242Y-115410622D01*
X204214242Y-115410622D02*
X204214242Y-115464497D01*
X204214242Y-115464497D02*
X204241179Y-115545309D01*
X202586435Y-73173431D02*
X202505623Y-73200368D01*
X202505623Y-73200368D02*
X202424811Y-73281180D01*
X202424811Y-73281180D02*
X202370936Y-73388930D01*
X202370936Y-73388930D02*
X202370936Y-73496680D01*
X202370936Y-73496680D02*
X202397873Y-73577492D01*
X202397873Y-73577492D02*
X202478685Y-73712179D01*
X202478685Y-73712179D02*
X202559498Y-73792991D01*
X202559498Y-73792991D02*
X202694185Y-73873803D01*
X202694185Y-73873803D02*
X202774997Y-73900741D01*
X202774997Y-73900741D02*
X202882746Y-73900741D01*
X202882746Y-73900741D02*
X202990496Y-73846866D01*
X202990496Y-73846866D02*
X203044371Y-73792991D01*
X203044371Y-73792991D02*
X203098246Y-73685241D01*
X203098246Y-73685241D02*
X203098246Y-73631367D01*
X203098246Y-73631367D02*
X202909684Y-73442805D01*
X202909684Y-73442805D02*
X202801934Y-73550554D01*
X203394557Y-73442805D02*
X202828872Y-72877119D01*
X202828872Y-72877119D02*
X203717806Y-73119556D01*
X203717806Y-73119556D02*
X203152120Y-72553871D01*
X203987180Y-72850182D02*
X203421494Y-72284497D01*
X203421494Y-72284497D02*
X203556181Y-72149810D01*
X203556181Y-72149810D02*
X203663931Y-72095935D01*
X203663931Y-72095935D02*
X203771680Y-72095935D01*
X203771680Y-72095935D02*
X203852493Y-72122872D01*
X203852493Y-72122872D02*
X203987180Y-72203685D01*
X203987180Y-72203685D02*
X204067992Y-72284497D01*
X204067992Y-72284497D02*
X204148804Y-72419184D01*
X204148804Y-72419184D02*
X204175741Y-72499996D01*
X204175741Y-72499996D02*
X204175741Y-72607746D01*
X204175741Y-72607746D02*
X204121867Y-72715495D01*
X204121867Y-72715495D02*
X203987180Y-72850182D01*
X202597998Y-108975868D02*
X202517185Y-109002805D01*
X202517185Y-109002805D02*
X202436373Y-109083618D01*
X202436373Y-109083618D02*
X202382498Y-109191367D01*
X202382498Y-109191367D02*
X202382498Y-109299117D01*
X202382498Y-109299117D02*
X202409436Y-109379929D01*
X202409436Y-109379929D02*
X202490248Y-109514616D01*
X202490248Y-109514616D02*
X202571060Y-109595428D01*
X202571060Y-109595428D02*
X202705747Y-109676241D01*
X202705747Y-109676241D02*
X202786560Y-109703178D01*
X202786560Y-109703178D02*
X202894309Y-109703178D01*
X202894309Y-109703178D02*
X203002059Y-109649303D01*
X203002059Y-109649303D02*
X203055934Y-109595428D01*
X203055934Y-109595428D02*
X203109808Y-109487679D01*
X203109808Y-109487679D02*
X203109808Y-109433804D01*
X203109808Y-109433804D02*
X202921247Y-109245242D01*
X202921247Y-109245242D02*
X202813497Y-109352992D01*
X203406120Y-109245242D02*
X202840434Y-108679557D01*
X202840434Y-108679557D02*
X203055934Y-108464057D01*
X203055934Y-108464057D02*
X203136746Y-108437120D01*
X203136746Y-108437120D02*
X203190621Y-108437120D01*
X203190621Y-108437120D02*
X203271433Y-108464057D01*
X203271433Y-108464057D02*
X203352245Y-108544870D01*
X203352245Y-108544870D02*
X203379182Y-108625682D01*
X203379182Y-108625682D02*
X203379182Y-108679557D01*
X203379182Y-108679557D02*
X203352245Y-108760369D01*
X203352245Y-108760369D02*
X203136746Y-108975868D01*
X204268117Y-108383245D02*
X203944868Y-108706494D01*
X204106492Y-108544870D02*
X203540807Y-107979184D01*
X203540807Y-107979184D02*
X203567744Y-108113871D01*
X203567744Y-108113871D02*
X203567744Y-108221621D01*
X203567744Y-108221621D02*
X203540807Y-108302433D01*
X204268117Y-107736747D02*
X204187305Y-107763685D01*
X204187305Y-107763685D02*
X204133430Y-107763685D01*
X204133430Y-107763685D02*
X204052618Y-107736747D01*
X204052618Y-107736747D02*
X204025680Y-107709810D01*
X204025680Y-107709810D02*
X203998743Y-107628998D01*
X203998743Y-107628998D02*
X203998743Y-107575123D01*
X203998743Y-107575123D02*
X204025680Y-107494311D01*
X204025680Y-107494311D02*
X204133430Y-107386561D01*
X204133430Y-107386561D02*
X204214242Y-107359624D01*
X204214242Y-107359624D02*
X204268117Y-107359624D01*
X204268117Y-107359624D02*
X204348929Y-107386561D01*
X204348929Y-107386561D02*
X204375866Y-107413499D01*
X204375866Y-107413499D02*
X204402804Y-107494311D01*
X204402804Y-107494311D02*
X204402804Y-107548186D01*
X204402804Y-107548186D02*
X204375866Y-107628998D01*
X204375866Y-107628998D02*
X204268117Y-107736747D01*
X204268117Y-107736747D02*
X204241179Y-107817560D01*
X204241179Y-107817560D02*
X204241179Y-107871434D01*
X204241179Y-107871434D02*
X204268117Y-107952247D01*
X204268117Y-107952247D02*
X204375866Y-108059996D01*
X204375866Y-108059996D02*
X204456679Y-108086934D01*
X204456679Y-108086934D02*
X204510553Y-108086934D01*
X204510553Y-108086934D02*
X204591366Y-108059996D01*
X204591366Y-108059996D02*
X204699115Y-107952247D01*
X204699115Y-107952247D02*
X204726053Y-107871434D01*
X204726053Y-107871434D02*
X204726053Y-107817560D01*
X204726053Y-107817560D02*
X204699115Y-107736747D01*
X204699115Y-107736747D02*
X204591366Y-107628998D01*
X204591366Y-107628998D02*
X204510553Y-107602060D01*
X204510553Y-107602060D02*
X204456679Y-107602060D01*
X204456679Y-107602060D02*
X204375866Y-107628998D01*
X176489998Y-108975868D02*
X176409185Y-109002805D01*
X176409185Y-109002805D02*
X176328373Y-109083618D01*
X176328373Y-109083618D02*
X176274498Y-109191367D01*
X176274498Y-109191367D02*
X176274498Y-109299117D01*
X176274498Y-109299117D02*
X176301436Y-109379929D01*
X176301436Y-109379929D02*
X176382248Y-109514616D01*
X176382248Y-109514616D02*
X176463060Y-109595428D01*
X176463060Y-109595428D02*
X176597747Y-109676241D01*
X176597747Y-109676241D02*
X176678560Y-109703178D01*
X176678560Y-109703178D02*
X176786309Y-109703178D01*
X176786309Y-109703178D02*
X176894059Y-109649303D01*
X176894059Y-109649303D02*
X176947934Y-109595428D01*
X176947934Y-109595428D02*
X177001808Y-109487679D01*
X177001808Y-109487679D02*
X177001808Y-109433804D01*
X177001808Y-109433804D02*
X176813247Y-109245242D01*
X176813247Y-109245242D02*
X176705497Y-109352992D01*
X177298120Y-109245242D02*
X176732434Y-108679557D01*
X176732434Y-108679557D02*
X176947934Y-108464057D01*
X176947934Y-108464057D02*
X177028746Y-108437120D01*
X177028746Y-108437120D02*
X177082621Y-108437120D01*
X177082621Y-108437120D02*
X177163433Y-108464057D01*
X177163433Y-108464057D02*
X177244245Y-108544870D01*
X177244245Y-108544870D02*
X177271182Y-108625682D01*
X177271182Y-108625682D02*
X177271182Y-108679557D01*
X177271182Y-108679557D02*
X177244245Y-108760369D01*
X177244245Y-108760369D02*
X177028746Y-108975868D01*
X178160117Y-108383245D02*
X177836868Y-108706494D01*
X177998492Y-108544870D02*
X177432807Y-107979184D01*
X177432807Y-107979184D02*
X177459744Y-108113871D01*
X177459744Y-108113871D02*
X177459744Y-108221621D01*
X177459744Y-108221621D02*
X177432807Y-108302433D01*
X177782993Y-107628998D02*
X178133179Y-107278812D01*
X178133179Y-107278812D02*
X178160117Y-107682873D01*
X178160117Y-107682873D02*
X178240929Y-107602060D01*
X178240929Y-107602060D02*
X178321741Y-107575123D01*
X178321741Y-107575123D02*
X178375616Y-107575123D01*
X178375616Y-107575123D02*
X178456428Y-107602060D01*
X178456428Y-107602060D02*
X178591115Y-107736747D01*
X178591115Y-107736747D02*
X178618053Y-107817560D01*
X178618053Y-107817560D02*
X178618053Y-107871434D01*
X178618053Y-107871434D02*
X178591115Y-107952247D01*
X178591115Y-107952247D02*
X178429491Y-108113871D01*
X178429491Y-108113871D02*
X178348679Y-108140808D01*
X178348679Y-108140808D02*
X178294804Y-108140808D01*
X202597998Y-101365868D02*
X202517185Y-101392805D01*
X202517185Y-101392805D02*
X202436373Y-101473618D01*
X202436373Y-101473618D02*
X202382498Y-101581367D01*
X202382498Y-101581367D02*
X202382498Y-101689117D01*
X202382498Y-101689117D02*
X202409436Y-101769929D01*
X202409436Y-101769929D02*
X202490248Y-101904616D01*
X202490248Y-101904616D02*
X202571060Y-101985428D01*
X202571060Y-101985428D02*
X202705747Y-102066241D01*
X202705747Y-102066241D02*
X202786560Y-102093178D01*
X202786560Y-102093178D02*
X202894309Y-102093178D01*
X202894309Y-102093178D02*
X203002059Y-102039303D01*
X203002059Y-102039303D02*
X203055934Y-101985428D01*
X203055934Y-101985428D02*
X203109808Y-101877679D01*
X203109808Y-101877679D02*
X203109808Y-101823804D01*
X203109808Y-101823804D02*
X202921247Y-101635242D01*
X202921247Y-101635242D02*
X202813497Y-101742992D01*
X203406120Y-101635242D02*
X202840434Y-101069557D01*
X202840434Y-101069557D02*
X203055934Y-100854057D01*
X203055934Y-100854057D02*
X203136746Y-100827120D01*
X203136746Y-100827120D02*
X203190621Y-100827120D01*
X203190621Y-100827120D02*
X203271433Y-100854057D01*
X203271433Y-100854057D02*
X203352245Y-100934870D01*
X203352245Y-100934870D02*
X203379182Y-101015682D01*
X203379182Y-101015682D02*
X203379182Y-101069557D01*
X203379182Y-101069557D02*
X203352245Y-101150369D01*
X203352245Y-101150369D02*
X203136746Y-101365868D01*
X203433057Y-100584683D02*
X203433057Y-100530809D01*
X203433057Y-100530809D02*
X203459995Y-100449996D01*
X203459995Y-100449996D02*
X203594682Y-100315309D01*
X203594682Y-100315309D02*
X203675494Y-100288372D01*
X203675494Y-100288372D02*
X203729369Y-100288372D01*
X203729369Y-100288372D02*
X203810181Y-100315309D01*
X203810181Y-100315309D02*
X203864056Y-100369184D01*
X203864056Y-100369184D02*
X203917930Y-100476934D01*
X203917930Y-100476934D02*
X203917930Y-101123431D01*
X203917930Y-101123431D02*
X204268117Y-100773245D01*
X204806865Y-100234497D02*
X204483616Y-100557746D01*
X204645240Y-100396121D02*
X204079555Y-99830436D01*
X204079555Y-99830436D02*
X204106492Y-99965123D01*
X204106492Y-99965123D02*
X204106492Y-100072873D01*
X204106492Y-100072873D02*
X204079555Y-100153685D01*
X202586435Y-111273431D02*
X202505623Y-111300368D01*
X202505623Y-111300368D02*
X202424811Y-111381180D01*
X202424811Y-111381180D02*
X202370936Y-111488930D01*
X202370936Y-111488930D02*
X202370936Y-111596680D01*
X202370936Y-111596680D02*
X202397873Y-111677492D01*
X202397873Y-111677492D02*
X202478685Y-111812179D01*
X202478685Y-111812179D02*
X202559498Y-111892991D01*
X202559498Y-111892991D02*
X202694185Y-111973803D01*
X202694185Y-111973803D02*
X202774997Y-112000741D01*
X202774997Y-112000741D02*
X202882746Y-112000741D01*
X202882746Y-112000741D02*
X202990496Y-111946866D01*
X202990496Y-111946866D02*
X203044371Y-111892991D01*
X203044371Y-111892991D02*
X203098246Y-111785241D01*
X203098246Y-111785241D02*
X203098246Y-111731367D01*
X203098246Y-111731367D02*
X202909684Y-111542805D01*
X202909684Y-111542805D02*
X202801934Y-111650554D01*
X203394557Y-111542805D02*
X202828872Y-110977119D01*
X202828872Y-110977119D02*
X203717806Y-111219556D01*
X203717806Y-111219556D02*
X203152120Y-110653871D01*
X203987180Y-110950182D02*
X203421494Y-110384497D01*
X203421494Y-110384497D02*
X203556181Y-110249810D01*
X203556181Y-110249810D02*
X203663931Y-110195935D01*
X203663931Y-110195935D02*
X203771680Y-110195935D01*
X203771680Y-110195935D02*
X203852493Y-110222872D01*
X203852493Y-110222872D02*
X203987180Y-110303685D01*
X203987180Y-110303685D02*
X204067992Y-110384497D01*
X204067992Y-110384497D02*
X204148804Y-110519184D01*
X204148804Y-110519184D02*
X204175741Y-110599996D01*
X204175741Y-110599996D02*
X204175741Y-110707746D01*
X204175741Y-110707746D02*
X204121867Y-110815495D01*
X204121867Y-110815495D02*
X203987180Y-110950182D01*
X177013372Y-80766494D02*
X176932560Y-80793431D01*
X176932560Y-80793431D02*
X176851748Y-80874243D01*
X176851748Y-80874243D02*
X176797873Y-80981993D01*
X176797873Y-80981993D02*
X176797873Y-81089742D01*
X176797873Y-81089742D02*
X176824810Y-81170555D01*
X176824810Y-81170555D02*
X176905623Y-81305242D01*
X176905623Y-81305242D02*
X176986435Y-81386054D01*
X176986435Y-81386054D02*
X177121122Y-81466866D01*
X177121122Y-81466866D02*
X177201934Y-81493803D01*
X177201934Y-81493803D02*
X177309684Y-81493803D01*
X177309684Y-81493803D02*
X177417433Y-81439929D01*
X177417433Y-81439929D02*
X177471308Y-81386054D01*
X177471308Y-81386054D02*
X177525183Y-81278304D01*
X177525183Y-81278304D02*
X177525183Y-81224429D01*
X177525183Y-81224429D02*
X177336621Y-81035868D01*
X177336621Y-81035868D02*
X177228871Y-81143617D01*
X177821494Y-81035868D02*
X177255809Y-80470182D01*
X177255809Y-80470182D02*
X177471308Y-80254683D01*
X177471308Y-80254683D02*
X177552120Y-80227746D01*
X177552120Y-80227746D02*
X177605995Y-80227746D01*
X177605995Y-80227746D02*
X177686807Y-80254683D01*
X177686807Y-80254683D02*
X177767619Y-80335495D01*
X177767619Y-80335495D02*
X177794557Y-80416307D01*
X177794557Y-80416307D02*
X177794557Y-80470182D01*
X177794557Y-80470182D02*
X177767619Y-80550994D01*
X177767619Y-80550994D02*
X177552120Y-80766494D01*
X178252493Y-79850622D02*
X178629616Y-80227746D01*
X177902306Y-79769810D02*
X178171680Y-80308558D01*
X178171680Y-80308558D02*
X178521867Y-79958372D01*
X202390123Y-78565868D02*
X202740309Y-78215682D01*
X202740309Y-78215682D02*
X202767247Y-78619743D01*
X202767247Y-78619743D02*
X202848059Y-78538931D01*
X202848059Y-78538931D02*
X202928871Y-78511993D01*
X202928871Y-78511993D02*
X202982746Y-78511993D01*
X202982746Y-78511993D02*
X203063558Y-78538931D01*
X203063558Y-78538931D02*
X203198245Y-78673618D01*
X203198245Y-78673618D02*
X203225182Y-78754430D01*
X203225182Y-78754430D02*
X203225182Y-78808305D01*
X203225182Y-78808305D02*
X203198245Y-78889117D01*
X203198245Y-78889117D02*
X203036621Y-79050741D01*
X203036621Y-79050741D02*
X202955808Y-79077679D01*
X202955808Y-79077679D02*
X202901934Y-79077679D01*
X202901934Y-78054057D02*
X203656181Y-78431181D01*
X203656181Y-78431181D02*
X203279057Y-77676934D01*
X203413744Y-77542247D02*
X203763930Y-77192061D01*
X203763930Y-77192061D02*
X203790868Y-77596122D01*
X203790868Y-77596122D02*
X203871680Y-77515309D01*
X203871680Y-77515309D02*
X203952492Y-77488372D01*
X203952492Y-77488372D02*
X204006367Y-77488372D01*
X204006367Y-77488372D02*
X204087179Y-77515309D01*
X204087179Y-77515309D02*
X204221866Y-77649996D01*
X204221866Y-77649996D02*
X204248804Y-77730809D01*
X204248804Y-77730809D02*
X204248804Y-77784683D01*
X204248804Y-77784683D02*
X204221866Y-77865496D01*
X204221866Y-77865496D02*
X204060242Y-78027120D01*
X204060242Y-78027120D02*
X203979430Y-78054057D01*
X203979430Y-78054057D02*
X203925555Y-78054057D01*
X202597998Y-106435868D02*
X202517185Y-106462805D01*
X202517185Y-106462805D02*
X202436373Y-106543618D01*
X202436373Y-106543618D02*
X202382498Y-106651367D01*
X202382498Y-106651367D02*
X202382498Y-106759117D01*
X202382498Y-106759117D02*
X202409436Y-106839929D01*
X202409436Y-106839929D02*
X202490248Y-106974616D01*
X202490248Y-106974616D02*
X202571060Y-107055428D01*
X202571060Y-107055428D02*
X202705747Y-107136241D01*
X202705747Y-107136241D02*
X202786560Y-107163178D01*
X202786560Y-107163178D02*
X202894309Y-107163178D01*
X202894309Y-107163178D02*
X203002059Y-107109303D01*
X203002059Y-107109303D02*
X203055934Y-107055428D01*
X203055934Y-107055428D02*
X203109808Y-106947679D01*
X203109808Y-106947679D02*
X203109808Y-106893804D01*
X203109808Y-106893804D02*
X202921247Y-106705242D01*
X202921247Y-106705242D02*
X202813497Y-106812992D01*
X203406120Y-106705242D02*
X202840434Y-106139557D01*
X202840434Y-106139557D02*
X203055934Y-105924057D01*
X203055934Y-105924057D02*
X203136746Y-105897120D01*
X203136746Y-105897120D02*
X203190621Y-105897120D01*
X203190621Y-105897120D02*
X203271433Y-105924057D01*
X203271433Y-105924057D02*
X203352245Y-106004870D01*
X203352245Y-106004870D02*
X203379182Y-106085682D01*
X203379182Y-106085682D02*
X203379182Y-106139557D01*
X203379182Y-106139557D02*
X203352245Y-106220369D01*
X203352245Y-106220369D02*
X203136746Y-106435868D01*
X204268117Y-105843245D02*
X203944868Y-106166494D01*
X204106492Y-106004870D02*
X203540807Y-105439184D01*
X203540807Y-105439184D02*
X203567744Y-105573871D01*
X203567744Y-105573871D02*
X203567744Y-105681621D01*
X203567744Y-105681621D02*
X203540807Y-105762433D01*
X204537491Y-105573871D02*
X204645240Y-105466121D01*
X204645240Y-105466121D02*
X204672178Y-105385309D01*
X204672178Y-105385309D02*
X204672178Y-105331434D01*
X204672178Y-105331434D02*
X204645240Y-105196747D01*
X204645240Y-105196747D02*
X204564428Y-105062060D01*
X204564428Y-105062060D02*
X204348929Y-104846561D01*
X204348929Y-104846561D02*
X204268117Y-104819624D01*
X204268117Y-104819624D02*
X204214242Y-104819624D01*
X204214242Y-104819624D02*
X204133430Y-104846561D01*
X204133430Y-104846561D02*
X204025680Y-104954311D01*
X204025680Y-104954311D02*
X203998743Y-105035123D01*
X203998743Y-105035123D02*
X203998743Y-105088998D01*
X203998743Y-105088998D02*
X204025680Y-105169810D01*
X204025680Y-105169810D02*
X204160367Y-105304497D01*
X204160367Y-105304497D02*
X204241179Y-105331434D01*
X204241179Y-105331434D02*
X204295054Y-105331434D01*
X204295054Y-105331434D02*
X204375866Y-105304497D01*
X204375866Y-105304497D02*
X204483616Y-105196747D01*
X204483616Y-105196747D02*
X204510553Y-105115935D01*
X204510553Y-105115935D02*
X204510553Y-105062060D01*
X204510553Y-105062060D02*
X204483616Y-104981248D01*
X202651873Y-86816240D02*
X202921247Y-86546866D01*
X202759623Y-87031739D02*
X202382499Y-86277492D01*
X202382499Y-86277492D02*
X203136746Y-86654615D01*
X203082871Y-85630994D02*
X203002059Y-85657932D01*
X203002059Y-85657932D02*
X202921247Y-85738744D01*
X202921247Y-85738744D02*
X202867372Y-85846494D01*
X202867372Y-85846494D02*
X202867372Y-85954243D01*
X202867372Y-85954243D02*
X202894310Y-86035055D01*
X202894310Y-86035055D02*
X202975122Y-86169742D01*
X202975122Y-86169742D02*
X203055934Y-86250555D01*
X203055934Y-86250555D02*
X203190621Y-86331367D01*
X203190621Y-86331367D02*
X203271433Y-86358304D01*
X203271433Y-86358304D02*
X203379183Y-86358304D01*
X203379183Y-86358304D02*
X203486932Y-86304429D01*
X203486932Y-86304429D02*
X203540807Y-86250555D01*
X203540807Y-86250555D02*
X203594682Y-86142805D01*
X203594682Y-86142805D02*
X203594682Y-86088930D01*
X203594682Y-86088930D02*
X203406120Y-85900368D01*
X203406120Y-85900368D02*
X203298371Y-86008118D01*
X203890993Y-85900368D02*
X203325308Y-85334683D01*
X203325308Y-85334683D02*
X204214242Y-85577120D01*
X204214242Y-85577120D02*
X203648557Y-85011434D01*
X204483616Y-85307746D02*
X203917931Y-84742060D01*
X203917931Y-84742060D02*
X204052618Y-84607373D01*
X204052618Y-84607373D02*
X204160367Y-84553498D01*
X204160367Y-84553498D02*
X204268117Y-84553498D01*
X204268117Y-84553498D02*
X204348929Y-84580436D01*
X204348929Y-84580436D02*
X204483616Y-84661248D01*
X204483616Y-84661248D02*
X204564428Y-84742060D01*
X204564428Y-84742060D02*
X204645241Y-84876747D01*
X204645241Y-84876747D02*
X204672178Y-84957560D01*
X204672178Y-84957560D02*
X204672178Y-85065309D01*
X204672178Y-85065309D02*
X204618303Y-85173059D01*
X204618303Y-85173059D02*
X204483616Y-85307746D01*
X202597998Y-83321868D02*
X202517185Y-83348805D01*
X202517185Y-83348805D02*
X202436373Y-83429618D01*
X202436373Y-83429618D02*
X202382498Y-83537367D01*
X202382498Y-83537367D02*
X202382498Y-83645117D01*
X202382498Y-83645117D02*
X202409436Y-83725929D01*
X202409436Y-83725929D02*
X202490248Y-83860616D01*
X202490248Y-83860616D02*
X202571060Y-83941428D01*
X202571060Y-83941428D02*
X202705747Y-84022241D01*
X202705747Y-84022241D02*
X202786560Y-84049178D01*
X202786560Y-84049178D02*
X202894309Y-84049178D01*
X202894309Y-84049178D02*
X203002059Y-83995303D01*
X203002059Y-83995303D02*
X203055934Y-83941428D01*
X203055934Y-83941428D02*
X203109808Y-83833679D01*
X203109808Y-83833679D02*
X203109808Y-83779804D01*
X203109808Y-83779804D02*
X202921247Y-83591242D01*
X202921247Y-83591242D02*
X202813497Y-83698992D01*
X203406120Y-83591242D02*
X202840434Y-83025557D01*
X202840434Y-83025557D02*
X203055934Y-82810057D01*
X203055934Y-82810057D02*
X203136746Y-82783120D01*
X203136746Y-82783120D02*
X203190621Y-82783120D01*
X203190621Y-82783120D02*
X203271433Y-82810057D01*
X203271433Y-82810057D02*
X203352245Y-82890870D01*
X203352245Y-82890870D02*
X203379182Y-82971682D01*
X203379182Y-82971682D02*
X203379182Y-83025557D01*
X203379182Y-83025557D02*
X203352245Y-83106369D01*
X203352245Y-83106369D02*
X203136746Y-83321868D01*
X203433057Y-82540683D02*
X203433057Y-82486809D01*
X203433057Y-82486809D02*
X203459995Y-82405996D01*
X203459995Y-82405996D02*
X203594682Y-82271309D01*
X203594682Y-82271309D02*
X203675494Y-82244372D01*
X203675494Y-82244372D02*
X203729369Y-82244372D01*
X203729369Y-82244372D02*
X203810181Y-82271309D01*
X203810181Y-82271309D02*
X203864056Y-82325184D01*
X203864056Y-82325184D02*
X203917930Y-82432934D01*
X203917930Y-82432934D02*
X203917930Y-83079431D01*
X203917930Y-83079431D02*
X204268117Y-82729245D01*
X204268117Y-82082747D02*
X204187305Y-82109685D01*
X204187305Y-82109685D02*
X204133430Y-82109685D01*
X204133430Y-82109685D02*
X204052618Y-82082747D01*
X204052618Y-82082747D02*
X204025680Y-82055810D01*
X204025680Y-82055810D02*
X203998743Y-81974998D01*
X203998743Y-81974998D02*
X203998743Y-81921123D01*
X203998743Y-81921123D02*
X204025680Y-81840311D01*
X204025680Y-81840311D02*
X204133430Y-81732561D01*
X204133430Y-81732561D02*
X204214242Y-81705624D01*
X204214242Y-81705624D02*
X204268117Y-81705624D01*
X204268117Y-81705624D02*
X204348929Y-81732561D01*
X204348929Y-81732561D02*
X204375866Y-81759499D01*
X204375866Y-81759499D02*
X204402804Y-81840311D01*
X204402804Y-81840311D02*
X204402804Y-81894186D01*
X204402804Y-81894186D02*
X204375866Y-81974998D01*
X204375866Y-81974998D02*
X204268117Y-82082747D01*
X204268117Y-82082747D02*
X204241179Y-82163560D01*
X204241179Y-82163560D02*
X204241179Y-82217434D01*
X204241179Y-82217434D02*
X204268117Y-82298247D01*
X204268117Y-82298247D02*
X204375866Y-82405996D01*
X204375866Y-82405996D02*
X204456679Y-82432934D01*
X204456679Y-82432934D02*
X204510553Y-82432934D01*
X204510553Y-82432934D02*
X204591366Y-82405996D01*
X204591366Y-82405996D02*
X204699115Y-82298247D01*
X204699115Y-82298247D02*
X204726053Y-82217434D01*
X204726053Y-82217434D02*
X204726053Y-82163560D01*
X204726053Y-82163560D02*
X204699115Y-82082747D01*
X204699115Y-82082747D02*
X204591366Y-81974998D01*
X204591366Y-81974998D02*
X204510553Y-81948060D01*
X204510553Y-81948060D02*
X204456679Y-81948060D01*
X204456679Y-81948060D02*
X204375866Y-81974998D01*
X202597998Y-88665868D02*
X202517185Y-88692805D01*
X202517185Y-88692805D02*
X202436373Y-88773618D01*
X202436373Y-88773618D02*
X202382498Y-88881367D01*
X202382498Y-88881367D02*
X202382498Y-88989117D01*
X202382498Y-88989117D02*
X202409436Y-89069929D01*
X202409436Y-89069929D02*
X202490248Y-89204616D01*
X202490248Y-89204616D02*
X202571060Y-89285428D01*
X202571060Y-89285428D02*
X202705747Y-89366241D01*
X202705747Y-89366241D02*
X202786560Y-89393178D01*
X202786560Y-89393178D02*
X202894309Y-89393178D01*
X202894309Y-89393178D02*
X203002059Y-89339303D01*
X203002059Y-89339303D02*
X203055934Y-89285428D01*
X203055934Y-89285428D02*
X203109808Y-89177679D01*
X203109808Y-89177679D02*
X203109808Y-89123804D01*
X203109808Y-89123804D02*
X202921247Y-88935242D01*
X202921247Y-88935242D02*
X202813497Y-89042992D01*
X203406120Y-88935242D02*
X202840434Y-88369557D01*
X202840434Y-88369557D02*
X203055934Y-88154057D01*
X203055934Y-88154057D02*
X203136746Y-88127120D01*
X203136746Y-88127120D02*
X203190621Y-88127120D01*
X203190621Y-88127120D02*
X203271433Y-88154057D01*
X203271433Y-88154057D02*
X203352245Y-88234870D01*
X203352245Y-88234870D02*
X203379182Y-88315682D01*
X203379182Y-88315682D02*
X203379182Y-88369557D01*
X203379182Y-88369557D02*
X203352245Y-88450369D01*
X203352245Y-88450369D02*
X203136746Y-88665868D01*
X203433057Y-87884683D02*
X203433057Y-87830809D01*
X203433057Y-87830809D02*
X203459995Y-87749996D01*
X203459995Y-87749996D02*
X203594682Y-87615309D01*
X203594682Y-87615309D02*
X203675494Y-87588372D01*
X203675494Y-87588372D02*
X203729369Y-87588372D01*
X203729369Y-87588372D02*
X203810181Y-87615309D01*
X203810181Y-87615309D02*
X203864056Y-87669184D01*
X203864056Y-87669184D02*
X203917930Y-87776934D01*
X203917930Y-87776934D02*
X203917930Y-88423431D01*
X203917930Y-88423431D02*
X204268117Y-88073245D01*
X203890993Y-87318998D02*
X204268117Y-86941874D01*
X204268117Y-86941874D02*
X204591366Y-87749996D01*
X176986435Y-85873431D02*
X176905623Y-85900368D01*
X176905623Y-85900368D02*
X176824811Y-85981180D01*
X176824811Y-85981180D02*
X176770936Y-86088930D01*
X176770936Y-86088930D02*
X176770936Y-86196680D01*
X176770936Y-86196680D02*
X176797873Y-86277492D01*
X176797873Y-86277492D02*
X176878685Y-86412179D01*
X176878685Y-86412179D02*
X176959498Y-86492991D01*
X176959498Y-86492991D02*
X177094185Y-86573803D01*
X177094185Y-86573803D02*
X177174997Y-86600741D01*
X177174997Y-86600741D02*
X177282746Y-86600741D01*
X177282746Y-86600741D02*
X177390496Y-86546866D01*
X177390496Y-86546866D02*
X177444371Y-86492991D01*
X177444371Y-86492991D02*
X177498246Y-86385241D01*
X177498246Y-86385241D02*
X177498246Y-86331367D01*
X177498246Y-86331367D02*
X177309684Y-86142805D01*
X177309684Y-86142805D02*
X177201934Y-86250554D01*
X177794557Y-86142805D02*
X177228872Y-85577119D01*
X177228872Y-85577119D02*
X178117806Y-85819556D01*
X178117806Y-85819556D02*
X177552120Y-85253871D01*
X178387180Y-85550182D02*
X177821494Y-84984497D01*
X177821494Y-84984497D02*
X177956181Y-84849810D01*
X177956181Y-84849810D02*
X178063931Y-84795935D01*
X178063931Y-84795935D02*
X178171680Y-84795935D01*
X178171680Y-84795935D02*
X178252493Y-84822872D01*
X178252493Y-84822872D02*
X178387180Y-84903685D01*
X178387180Y-84903685D02*
X178467992Y-84984497D01*
X178467992Y-84984497D02*
X178548804Y-85119184D01*
X178548804Y-85119184D02*
X178575741Y-85199996D01*
X178575741Y-85199996D02*
X178575741Y-85307746D01*
X178575741Y-85307746D02*
X178521867Y-85415495D01*
X178521867Y-85415495D02*
X178387180Y-85550182D01*
X182990475Y-118599200D02*
X183104761Y-118637295D01*
X183104761Y-118637295D02*
X183295237Y-118637295D01*
X183295237Y-118637295D02*
X183371428Y-118599200D01*
X183371428Y-118599200D02*
X183409523Y-118561104D01*
X183409523Y-118561104D02*
X183447618Y-118484914D01*
X183447618Y-118484914D02*
X183447618Y-118408723D01*
X183447618Y-118408723D02*
X183409523Y-118332533D01*
X183409523Y-118332533D02*
X183371428Y-118294438D01*
X183371428Y-118294438D02*
X183295237Y-118256342D01*
X183295237Y-118256342D02*
X183142856Y-118218247D01*
X183142856Y-118218247D02*
X183066666Y-118180152D01*
X183066666Y-118180152D02*
X183028571Y-118142057D01*
X183028571Y-118142057D02*
X182990475Y-118065866D01*
X182990475Y-118065866D02*
X182990475Y-117989676D01*
X182990475Y-117989676D02*
X183028571Y-117913485D01*
X183028571Y-117913485D02*
X183066666Y-117875390D01*
X183066666Y-117875390D02*
X183142856Y-117837295D01*
X183142856Y-117837295D02*
X183333333Y-117837295D01*
X183333333Y-117837295D02*
X183447618Y-117875390D01*
X183714285Y-117837295D02*
X183904761Y-118637295D01*
X183904761Y-118637295D02*
X184057142Y-118065866D01*
X184057142Y-118065866D02*
X184209523Y-118637295D01*
X184209523Y-118637295D02*
X184400000Y-117837295D01*
X185161905Y-118561104D02*
X185123809Y-118599200D01*
X185123809Y-118599200D02*
X185009524Y-118637295D01*
X185009524Y-118637295D02*
X184933333Y-118637295D01*
X184933333Y-118637295D02*
X184819047Y-118599200D01*
X184819047Y-118599200D02*
X184742857Y-118523009D01*
X184742857Y-118523009D02*
X184704762Y-118446819D01*
X184704762Y-118446819D02*
X184666666Y-118294438D01*
X184666666Y-118294438D02*
X184666666Y-118180152D01*
X184666666Y-118180152D02*
X184704762Y-118027771D01*
X184704762Y-118027771D02*
X184742857Y-117951580D01*
X184742857Y-117951580D02*
X184819047Y-117875390D01*
X184819047Y-117875390D02*
X184933333Y-117837295D01*
X184933333Y-117837295D02*
X185009524Y-117837295D01*
X185009524Y-117837295D02*
X185123809Y-117875390D01*
X185123809Y-117875390D02*
X185161905Y-117913485D01*
X185885714Y-118637295D02*
X185504762Y-118637295D01*
X185504762Y-118637295D02*
X185504762Y-117837295D01*
X186152381Y-118637295D02*
X186152381Y-117837295D01*
X186609524Y-118637295D02*
X186266666Y-118180152D01*
X186609524Y-117837295D02*
X186152381Y-118294438D01*
X176986435Y-98573431D02*
X176905623Y-98600368D01*
X176905623Y-98600368D02*
X176824811Y-98681180D01*
X176824811Y-98681180D02*
X176770936Y-98788930D01*
X176770936Y-98788930D02*
X176770936Y-98896680D01*
X176770936Y-98896680D02*
X176797873Y-98977492D01*
X176797873Y-98977492D02*
X176878685Y-99112179D01*
X176878685Y-99112179D02*
X176959498Y-99192991D01*
X176959498Y-99192991D02*
X177094185Y-99273803D01*
X177094185Y-99273803D02*
X177174997Y-99300741D01*
X177174997Y-99300741D02*
X177282746Y-99300741D01*
X177282746Y-99300741D02*
X177390496Y-99246866D01*
X177390496Y-99246866D02*
X177444371Y-99192991D01*
X177444371Y-99192991D02*
X177498246Y-99085241D01*
X177498246Y-99085241D02*
X177498246Y-99031367D01*
X177498246Y-99031367D02*
X177309684Y-98842805D01*
X177309684Y-98842805D02*
X177201934Y-98950554D01*
X177794557Y-98842805D02*
X177228872Y-98277119D01*
X177228872Y-98277119D02*
X178117806Y-98519556D01*
X178117806Y-98519556D02*
X177552120Y-97953871D01*
X178387180Y-98250182D02*
X177821494Y-97684497D01*
X177821494Y-97684497D02*
X177956181Y-97549810D01*
X177956181Y-97549810D02*
X178063931Y-97495935D01*
X178063931Y-97495935D02*
X178171680Y-97495935D01*
X178171680Y-97495935D02*
X178252493Y-97522872D01*
X178252493Y-97522872D02*
X178387180Y-97603685D01*
X178387180Y-97603685D02*
X178467992Y-97684497D01*
X178467992Y-97684497D02*
X178548804Y-97819184D01*
X178548804Y-97819184D02*
X178575741Y-97899996D01*
X178575741Y-97899996D02*
X178575741Y-98007746D01*
X178575741Y-98007746D02*
X178521867Y-98115495D01*
X178521867Y-98115495D02*
X178387180Y-98250182D01*
X176986435Y-73173431D02*
X176905623Y-73200368D01*
X176905623Y-73200368D02*
X176824811Y-73281180D01*
X176824811Y-73281180D02*
X176770936Y-73388930D01*
X176770936Y-73388930D02*
X176770936Y-73496680D01*
X176770936Y-73496680D02*
X176797873Y-73577492D01*
X176797873Y-73577492D02*
X176878685Y-73712179D01*
X176878685Y-73712179D02*
X176959498Y-73792991D01*
X176959498Y-73792991D02*
X177094185Y-73873803D01*
X177094185Y-73873803D02*
X177174997Y-73900741D01*
X177174997Y-73900741D02*
X177282746Y-73900741D01*
X177282746Y-73900741D02*
X177390496Y-73846866D01*
X177390496Y-73846866D02*
X177444371Y-73792991D01*
X177444371Y-73792991D02*
X177498246Y-73685241D01*
X177498246Y-73685241D02*
X177498246Y-73631367D01*
X177498246Y-73631367D02*
X177309684Y-73442805D01*
X177309684Y-73442805D02*
X177201934Y-73550554D01*
X177794557Y-73442805D02*
X177228872Y-72877119D01*
X177228872Y-72877119D02*
X178117806Y-73119556D01*
X178117806Y-73119556D02*
X177552120Y-72553871D01*
X178387180Y-72850182D02*
X177821494Y-72284497D01*
X177821494Y-72284497D02*
X177956181Y-72149810D01*
X177956181Y-72149810D02*
X178063931Y-72095935D01*
X178063931Y-72095935D02*
X178171680Y-72095935D01*
X178171680Y-72095935D02*
X178252493Y-72122872D01*
X178252493Y-72122872D02*
X178387180Y-72203685D01*
X178387180Y-72203685D02*
X178467992Y-72284497D01*
X178467992Y-72284497D02*
X178548804Y-72419184D01*
X178548804Y-72419184D02*
X178575741Y-72499996D01*
X178575741Y-72499996D02*
X178575741Y-72607746D01*
X178575741Y-72607746D02*
X178521867Y-72715495D01*
X178521867Y-72715495D02*
X178387180Y-72850182D01*
X177013372Y-93466494D02*
X176932560Y-93493431D01*
X176932560Y-93493431D02*
X176851748Y-93574243D01*
X176851748Y-93574243D02*
X176797873Y-93681993D01*
X176797873Y-93681993D02*
X176797873Y-93789742D01*
X176797873Y-93789742D02*
X176824810Y-93870555D01*
X176824810Y-93870555D02*
X176905623Y-94005242D01*
X176905623Y-94005242D02*
X176986435Y-94086054D01*
X176986435Y-94086054D02*
X177121122Y-94166866D01*
X177121122Y-94166866D02*
X177201934Y-94193803D01*
X177201934Y-94193803D02*
X177309684Y-94193803D01*
X177309684Y-94193803D02*
X177417433Y-94139929D01*
X177417433Y-94139929D02*
X177471308Y-94086054D01*
X177471308Y-94086054D02*
X177525183Y-93978304D01*
X177525183Y-93978304D02*
X177525183Y-93924429D01*
X177525183Y-93924429D02*
X177336621Y-93735868D01*
X177336621Y-93735868D02*
X177228871Y-93843617D01*
X177821494Y-93735868D02*
X177255809Y-93170182D01*
X177255809Y-93170182D02*
X177471308Y-92954683D01*
X177471308Y-92954683D02*
X177552120Y-92927746D01*
X177552120Y-92927746D02*
X177605995Y-92927746D01*
X177605995Y-92927746D02*
X177686807Y-92954683D01*
X177686807Y-92954683D02*
X177767619Y-93035495D01*
X177767619Y-93035495D02*
X177794557Y-93116307D01*
X177794557Y-93116307D02*
X177794557Y-93170182D01*
X177794557Y-93170182D02*
X177767619Y-93250994D01*
X177767619Y-93250994D02*
X177552120Y-93466494D01*
X178144743Y-92766121D02*
X178063931Y-92793059D01*
X178063931Y-92793059D02*
X178010056Y-92793059D01*
X178010056Y-92793059D02*
X177929244Y-92766121D01*
X177929244Y-92766121D02*
X177902306Y-92739184D01*
X177902306Y-92739184D02*
X177875369Y-92658372D01*
X177875369Y-92658372D02*
X177875369Y-92604497D01*
X177875369Y-92604497D02*
X177902306Y-92523685D01*
X177902306Y-92523685D02*
X178010056Y-92415935D01*
X178010056Y-92415935D02*
X178090868Y-92388998D01*
X178090868Y-92388998D02*
X178144743Y-92388998D01*
X178144743Y-92388998D02*
X178225555Y-92415935D01*
X178225555Y-92415935D02*
X178252493Y-92442872D01*
X178252493Y-92442872D02*
X178279430Y-92523685D01*
X178279430Y-92523685D02*
X178279430Y-92577559D01*
X178279430Y-92577559D02*
X178252493Y-92658372D01*
X178252493Y-92658372D02*
X178144743Y-92766121D01*
X178144743Y-92766121D02*
X178117806Y-92846933D01*
X178117806Y-92846933D02*
X178117806Y-92900808D01*
X178117806Y-92900808D02*
X178144743Y-92981620D01*
X178144743Y-92981620D02*
X178252493Y-93089370D01*
X178252493Y-93089370D02*
X178333305Y-93116307D01*
X178333305Y-93116307D02*
X178387180Y-93116307D01*
X178387180Y-93116307D02*
X178467992Y-93089370D01*
X178467992Y-93089370D02*
X178575741Y-92981620D01*
X178575741Y-92981620D02*
X178602679Y-92900808D01*
X178602679Y-92900808D02*
X178602679Y-92846933D01*
X178602679Y-92846933D02*
X178575741Y-92766121D01*
X178575741Y-92766121D02*
X178467992Y-92658372D01*
X178467992Y-92658372D02*
X178387180Y-92631434D01*
X178387180Y-92631434D02*
X178333305Y-92631434D01*
X178333305Y-92631434D02*
X178252493Y-92658372D01*
X176443998Y-114055868D02*
X176363185Y-114082805D01*
X176363185Y-114082805D02*
X176282373Y-114163618D01*
X176282373Y-114163618D02*
X176228498Y-114271367D01*
X176228498Y-114271367D02*
X176228498Y-114379117D01*
X176228498Y-114379117D02*
X176255436Y-114459929D01*
X176255436Y-114459929D02*
X176336248Y-114594616D01*
X176336248Y-114594616D02*
X176417060Y-114675428D01*
X176417060Y-114675428D02*
X176551747Y-114756241D01*
X176551747Y-114756241D02*
X176632560Y-114783178D01*
X176632560Y-114783178D02*
X176740309Y-114783178D01*
X176740309Y-114783178D02*
X176848059Y-114729303D01*
X176848059Y-114729303D02*
X176901934Y-114675428D01*
X176901934Y-114675428D02*
X176955808Y-114567679D01*
X176955808Y-114567679D02*
X176955808Y-114513804D01*
X176955808Y-114513804D02*
X176767247Y-114325242D01*
X176767247Y-114325242D02*
X176659497Y-114432992D01*
X177252120Y-114325242D02*
X176686434Y-113759557D01*
X176686434Y-113759557D02*
X176901934Y-113544057D01*
X176901934Y-113544057D02*
X176982746Y-113517120D01*
X176982746Y-113517120D02*
X177036621Y-113517120D01*
X177036621Y-113517120D02*
X177117433Y-113544057D01*
X177117433Y-113544057D02*
X177198245Y-113624870D01*
X177198245Y-113624870D02*
X177225182Y-113705682D01*
X177225182Y-113705682D02*
X177225182Y-113759557D01*
X177225182Y-113759557D02*
X177198245Y-113840369D01*
X177198245Y-113840369D02*
X176982746Y-114055868D01*
X178114117Y-113463245D02*
X177790868Y-113786494D01*
X177952492Y-113624870D02*
X177386807Y-113059184D01*
X177386807Y-113059184D02*
X177413744Y-113193871D01*
X177413744Y-113193871D02*
X177413744Y-113301621D01*
X177413744Y-113301621D02*
X177386807Y-113382433D01*
X178221866Y-112601248D02*
X178598990Y-112978372D01*
X177871680Y-112520436D02*
X178141054Y-113059184D01*
X178141054Y-113059184D02*
X178491240Y-112708998D01*
X203338651Y-94018710D02*
X202880716Y-93937898D01*
X203015403Y-94341959D02*
X202449717Y-93776274D01*
X202449717Y-93776274D02*
X202665216Y-93560775D01*
X202665216Y-93560775D02*
X202746029Y-93533837D01*
X202746029Y-93533837D02*
X202799903Y-93533837D01*
X202799903Y-93533837D02*
X202880716Y-93560775D01*
X202880716Y-93560775D02*
X202961528Y-93641587D01*
X202961528Y-93641587D02*
X202988465Y-93722399D01*
X202988465Y-93722399D02*
X202988465Y-93776274D01*
X202988465Y-93776274D02*
X202961528Y-93857086D01*
X202961528Y-93857086D02*
X202746029Y-94072585D01*
X203015403Y-93210588D02*
X203473338Y-93668524D01*
X203473338Y-93668524D02*
X203554151Y-93695462D01*
X203554151Y-93695462D02*
X203608025Y-93695462D01*
X203608025Y-93695462D02*
X203688838Y-93668524D01*
X203688838Y-93668524D02*
X203796587Y-93560775D01*
X203796587Y-93560775D02*
X203823525Y-93479962D01*
X203823525Y-93479962D02*
X203823525Y-93426088D01*
X203823525Y-93426088D02*
X203796587Y-93345275D01*
X203796587Y-93345275D02*
X203338651Y-92887340D01*
X204173711Y-93183651D02*
X203608025Y-92617966D01*
X203608025Y-92617966D02*
X204496959Y-92860402D01*
X204496959Y-92860402D02*
X203931274Y-92294717D01*
X202655064Y-81609049D02*
X202924438Y-81339675D01*
X202762813Y-81824549D02*
X202385690Y-81070301D01*
X202385690Y-81070301D02*
X203139937Y-81447425D01*
X203328499Y-81258863D02*
X202762813Y-80693178D01*
X202762813Y-80693178D02*
X202897500Y-80558491D01*
X202897500Y-80558491D02*
X203005250Y-80504616D01*
X203005250Y-80504616D02*
X203112999Y-80504616D01*
X203112999Y-80504616D02*
X203193812Y-80531553D01*
X203193812Y-80531553D02*
X203328499Y-80612366D01*
X203328499Y-80612366D02*
X203409311Y-80693178D01*
X203409311Y-80693178D02*
X203490123Y-80827865D01*
X203490123Y-80827865D02*
X203517060Y-80908677D01*
X203517060Y-80908677D02*
X203517060Y-81016427D01*
X203517060Y-81016427D02*
X203463186Y-81124176D01*
X203463186Y-81124176D02*
X203328499Y-81258863D01*
X204163558Y-80316054D02*
X204163558Y-80369929D01*
X204163558Y-80369929D02*
X204109683Y-80477679D01*
X204109683Y-80477679D02*
X204055808Y-80531553D01*
X204055808Y-80531553D02*
X203948059Y-80585428D01*
X203948059Y-80585428D02*
X203840309Y-80585428D01*
X203840309Y-80585428D02*
X203759497Y-80558491D01*
X203759497Y-80558491D02*
X203624810Y-80477679D01*
X203624810Y-80477679D02*
X203543998Y-80396866D01*
X203543998Y-80396866D02*
X203463186Y-80262179D01*
X203463186Y-80262179D02*
X203436248Y-80181367D01*
X203436248Y-80181367D02*
X203436248Y-80073618D01*
X203436248Y-80073618D02*
X203490123Y-79965868D01*
X203490123Y-79965868D02*
X203543998Y-79911993D01*
X203543998Y-79911993D02*
X203651747Y-79858118D01*
X203651747Y-79858118D02*
X203705622Y-79858118D01*
X204379057Y-80316054D02*
X204810056Y-79885056D01*
X204244370Y-79211621D02*
X204998618Y-79588744D01*
X204998618Y-79588744D02*
X204621494Y-78834497D01*
X205698990Y-78888372D02*
X205241054Y-78807560D01*
X205375741Y-79211621D02*
X204810056Y-78645935D01*
X204810056Y-78645935D02*
X205025555Y-78430436D01*
X205025555Y-78430436D02*
X205106367Y-78403499D01*
X205106367Y-78403499D02*
X205160242Y-78403499D01*
X205160242Y-78403499D02*
X205241054Y-78430436D01*
X205241054Y-78430436D02*
X205321866Y-78511248D01*
X205321866Y-78511248D02*
X205348804Y-78592061D01*
X205348804Y-78592061D02*
X205348804Y-78645935D01*
X205348804Y-78645935D02*
X205321866Y-78726748D01*
X205321866Y-78726748D02*
X205106367Y-78942247D01*
X205645115Y-78349624D02*
X205833677Y-78161062D01*
X206210800Y-78376561D02*
X205941426Y-78645935D01*
X205941426Y-78645935D02*
X205375741Y-78080250D01*
X205375741Y-78080250D02*
X205645115Y-77810876D01*
X206345488Y-77649251D02*
X206156926Y-77837813D01*
X206453237Y-78134125D02*
X205887552Y-77568439D01*
X205887552Y-77568439D02*
X206156926Y-77299065D01*
X202597998Y-103895868D02*
X202517185Y-103922805D01*
X202517185Y-103922805D02*
X202436373Y-104003618D01*
X202436373Y-104003618D02*
X202382498Y-104111367D01*
X202382498Y-104111367D02*
X202382498Y-104219117D01*
X202382498Y-104219117D02*
X202409436Y-104299929D01*
X202409436Y-104299929D02*
X202490248Y-104434616D01*
X202490248Y-104434616D02*
X202571060Y-104515428D01*
X202571060Y-104515428D02*
X202705747Y-104596241D01*
X202705747Y-104596241D02*
X202786560Y-104623178D01*
X202786560Y-104623178D02*
X202894309Y-104623178D01*
X202894309Y-104623178D02*
X203002059Y-104569303D01*
X203002059Y-104569303D02*
X203055934Y-104515428D01*
X203055934Y-104515428D02*
X203109808Y-104407679D01*
X203109808Y-104407679D02*
X203109808Y-104353804D01*
X203109808Y-104353804D02*
X202921247Y-104165242D01*
X202921247Y-104165242D02*
X202813497Y-104272992D01*
X203406120Y-104165242D02*
X202840434Y-103599557D01*
X202840434Y-103599557D02*
X203055934Y-103384057D01*
X203055934Y-103384057D02*
X203136746Y-103357120D01*
X203136746Y-103357120D02*
X203190621Y-103357120D01*
X203190621Y-103357120D02*
X203271433Y-103384057D01*
X203271433Y-103384057D02*
X203352245Y-103464870D01*
X203352245Y-103464870D02*
X203379182Y-103545682D01*
X203379182Y-103545682D02*
X203379182Y-103599557D01*
X203379182Y-103599557D02*
X203352245Y-103680369D01*
X203352245Y-103680369D02*
X203136746Y-103895868D01*
X203433057Y-103114683D02*
X203433057Y-103060809D01*
X203433057Y-103060809D02*
X203459995Y-102979996D01*
X203459995Y-102979996D02*
X203594682Y-102845309D01*
X203594682Y-102845309D02*
X203675494Y-102818372D01*
X203675494Y-102818372D02*
X203729369Y-102818372D01*
X203729369Y-102818372D02*
X203810181Y-102845309D01*
X203810181Y-102845309D02*
X203864056Y-102899184D01*
X203864056Y-102899184D02*
X203917930Y-103006934D01*
X203917930Y-103006934D02*
X203917930Y-103653431D01*
X203917930Y-103653431D02*
X204268117Y-103303245D01*
X204052618Y-102387373D02*
X204106492Y-102333499D01*
X204106492Y-102333499D02*
X204187305Y-102306561D01*
X204187305Y-102306561D02*
X204241179Y-102306561D01*
X204241179Y-102306561D02*
X204321992Y-102333499D01*
X204321992Y-102333499D02*
X204456679Y-102414311D01*
X204456679Y-102414311D02*
X204591366Y-102548998D01*
X204591366Y-102548998D02*
X204672178Y-102683685D01*
X204672178Y-102683685D02*
X204699115Y-102764497D01*
X204699115Y-102764497D02*
X204699115Y-102818372D01*
X204699115Y-102818372D02*
X204672178Y-102899184D01*
X204672178Y-102899184D02*
X204618303Y-102953059D01*
X204618303Y-102953059D02*
X204537491Y-102979996D01*
X204537491Y-102979996D02*
X204483616Y-102979996D01*
X204483616Y-102979996D02*
X204402804Y-102953059D01*
X204402804Y-102953059D02*
X204268117Y-102872247D01*
X204268117Y-102872247D02*
X204133430Y-102737560D01*
X204133430Y-102737560D02*
X204052618Y-102602873D01*
X204052618Y-102602873D02*
X204025680Y-102522060D01*
X204025680Y-102522060D02*
X204025680Y-102468186D01*
X204025680Y-102468186D02*
X204052618Y-102387373D01*
X202453406Y-68602585D02*
X203207653Y-68979709D01*
X203207653Y-68979709D02*
X202830529Y-68225462D01*
X203477027Y-68117712D02*
X203584776Y-68063838D01*
X203584776Y-68063838D02*
X203638651Y-68063838D01*
X203638651Y-68063838D02*
X203719463Y-68090775D01*
X203719463Y-68090775D02*
X203800276Y-68171587D01*
X203800276Y-68171587D02*
X203827213Y-68252399D01*
X203827213Y-68252399D02*
X203827213Y-68306274D01*
X203827213Y-68306274D02*
X203800276Y-68387086D01*
X203800276Y-68387086D02*
X203584776Y-68602586D01*
X203584776Y-68602586D02*
X203019091Y-68036900D01*
X203019091Y-68036900D02*
X203207653Y-67848338D01*
X203207653Y-67848338D02*
X203288465Y-67821401D01*
X203288465Y-67821401D02*
X203342340Y-67821401D01*
X203342340Y-67821401D02*
X203423152Y-67848338D01*
X203423152Y-67848338D02*
X203477027Y-67902213D01*
X203477027Y-67902213D02*
X203503964Y-67983025D01*
X203503964Y-67983025D02*
X203503964Y-68036900D01*
X203503964Y-68036900D02*
X203477027Y-68117712D01*
X203477027Y-68117712D02*
X203288465Y-68306274D01*
X203584776Y-67471215D02*
X204042712Y-67929151D01*
X204042712Y-67929151D02*
X204123524Y-67956088D01*
X204123524Y-67956088D02*
X204177399Y-67956088D01*
X204177399Y-67956088D02*
X204258211Y-67929151D01*
X204258211Y-67929151D02*
X204365961Y-67821401D01*
X204365961Y-67821401D02*
X204392898Y-67740589D01*
X204392898Y-67740589D02*
X204392898Y-67686714D01*
X204392898Y-67686714D02*
X204365961Y-67605902D01*
X204365961Y-67605902D02*
X203908025Y-67147966D01*
X204689210Y-67444277D02*
X204796959Y-67390403D01*
X204796959Y-67390403D02*
X204931646Y-67255716D01*
X204931646Y-67255716D02*
X204958584Y-67174903D01*
X204958584Y-67174903D02*
X204958584Y-67121029D01*
X204958584Y-67121029D02*
X204931646Y-67040216D01*
X204931646Y-67040216D02*
X204877771Y-66986342D01*
X204877771Y-66986342D02*
X204796959Y-66959404D01*
X204796959Y-66959404D02*
X204743084Y-66959404D01*
X204743084Y-66959404D02*
X204662272Y-66986342D01*
X204662272Y-66986342D02*
X204527585Y-67067154D01*
X204527585Y-67067154D02*
X204446773Y-67094091D01*
X204446773Y-67094091D02*
X204392898Y-67094091D01*
X204392898Y-67094091D02*
X204312086Y-67067154D01*
X204312086Y-67067154D02*
X204258211Y-67013279D01*
X204258211Y-67013279D02*
X204231274Y-66932467D01*
X204231274Y-66932467D02*
X204231274Y-66878592D01*
X204231274Y-66878592D02*
X204258211Y-66797780D01*
X204258211Y-66797780D02*
X204392898Y-66663093D01*
X204392898Y-66663093D02*
X204500648Y-66609218D01*
X202586435Y-98573431D02*
X202505623Y-98600368D01*
X202505623Y-98600368D02*
X202424811Y-98681180D01*
X202424811Y-98681180D02*
X202370936Y-98788930D01*
X202370936Y-98788930D02*
X202370936Y-98896680D01*
X202370936Y-98896680D02*
X202397873Y-98977492D01*
X202397873Y-98977492D02*
X202478685Y-99112179D01*
X202478685Y-99112179D02*
X202559498Y-99192991D01*
X202559498Y-99192991D02*
X202694185Y-99273803D01*
X202694185Y-99273803D02*
X202774997Y-99300741D01*
X202774997Y-99300741D02*
X202882746Y-99300741D01*
X202882746Y-99300741D02*
X202990496Y-99246866D01*
X202990496Y-99246866D02*
X203044371Y-99192991D01*
X203044371Y-99192991D02*
X203098246Y-99085241D01*
X203098246Y-99085241D02*
X203098246Y-99031367D01*
X203098246Y-99031367D02*
X202909684Y-98842805D01*
X202909684Y-98842805D02*
X202801934Y-98950554D01*
X203394557Y-98842805D02*
X202828872Y-98277119D01*
X202828872Y-98277119D02*
X203717806Y-98519556D01*
X203717806Y-98519556D02*
X203152120Y-97953871D01*
X203987180Y-98250182D02*
X203421494Y-97684497D01*
X203421494Y-97684497D02*
X203556181Y-97549810D01*
X203556181Y-97549810D02*
X203663931Y-97495935D01*
X203663931Y-97495935D02*
X203771680Y-97495935D01*
X203771680Y-97495935D02*
X203852493Y-97522872D01*
X203852493Y-97522872D02*
X203987180Y-97603685D01*
X203987180Y-97603685D02*
X204067992Y-97684497D01*
X204067992Y-97684497D02*
X204148804Y-97819184D01*
X204148804Y-97819184D02*
X204175741Y-97899996D01*
X204175741Y-97899996D02*
X204175741Y-98007746D01*
X204175741Y-98007746D02*
X204121867Y-98115495D01*
X204121867Y-98115495D02*
X203987180Y-98250182D01*
X177013372Y-68066494D02*
X176932560Y-68093431D01*
X176932560Y-68093431D02*
X176851748Y-68174243D01*
X176851748Y-68174243D02*
X176797873Y-68281993D01*
X176797873Y-68281993D02*
X176797873Y-68389742D01*
X176797873Y-68389742D02*
X176824810Y-68470555D01*
X176824810Y-68470555D02*
X176905623Y-68605242D01*
X176905623Y-68605242D02*
X176986435Y-68686054D01*
X176986435Y-68686054D02*
X177121122Y-68766866D01*
X177121122Y-68766866D02*
X177201934Y-68793803D01*
X177201934Y-68793803D02*
X177309684Y-68793803D01*
X177309684Y-68793803D02*
X177417433Y-68739929D01*
X177417433Y-68739929D02*
X177471308Y-68686054D01*
X177471308Y-68686054D02*
X177525183Y-68578304D01*
X177525183Y-68578304D02*
X177525183Y-68524429D01*
X177525183Y-68524429D02*
X177336621Y-68335868D01*
X177336621Y-68335868D02*
X177228871Y-68443617D01*
X177821494Y-68335868D02*
X177255809Y-67770182D01*
X177255809Y-67770182D02*
X177471308Y-67554683D01*
X177471308Y-67554683D02*
X177552120Y-67527746D01*
X177552120Y-67527746D02*
X177605995Y-67527746D01*
X177605995Y-67527746D02*
X177686807Y-67554683D01*
X177686807Y-67554683D02*
X177767619Y-67635495D01*
X177767619Y-67635495D02*
X177794557Y-67716307D01*
X177794557Y-67716307D02*
X177794557Y-67770182D01*
X177794557Y-67770182D02*
X177767619Y-67850994D01*
X177767619Y-67850994D02*
X177552120Y-68066494D01*
X177929244Y-67096747D02*
X177983119Y-67042872D01*
X177983119Y-67042872D02*
X178063931Y-67015935D01*
X178063931Y-67015935D02*
X178117806Y-67015935D01*
X178117806Y-67015935D02*
X178198618Y-67042872D01*
X178198618Y-67042872D02*
X178333305Y-67123685D01*
X178333305Y-67123685D02*
X178467992Y-67258372D01*
X178467992Y-67258372D02*
X178548804Y-67393059D01*
X178548804Y-67393059D02*
X178575741Y-67473871D01*
X178575741Y-67473871D02*
X178575741Y-67527746D01*
X178575741Y-67527746D02*
X178548804Y-67608558D01*
X178548804Y-67608558D02*
X178494929Y-67662433D01*
X178494929Y-67662433D02*
X178414117Y-67689370D01*
X178414117Y-67689370D02*
X178360242Y-67689370D01*
X178360242Y-67689370D02*
X178279430Y-67662433D01*
X178279430Y-67662433D02*
X178144743Y-67581620D01*
X178144743Y-67581620D02*
X178010056Y-67446933D01*
X178010056Y-67446933D02*
X177929244Y-67312246D01*
X177929244Y-67312246D02*
X177902306Y-67231434D01*
X177902306Y-67231434D02*
X177902306Y-67177559D01*
X177902306Y-67177559D02*
X177929244Y-67096747D01*
X177013372Y-96006494D02*
X176932560Y-96033431D01*
X176932560Y-96033431D02*
X176851748Y-96114243D01*
X176851748Y-96114243D02*
X176797873Y-96221993D01*
X176797873Y-96221993D02*
X176797873Y-96329742D01*
X176797873Y-96329742D02*
X176824810Y-96410555D01*
X176824810Y-96410555D02*
X176905623Y-96545242D01*
X176905623Y-96545242D02*
X176986435Y-96626054D01*
X176986435Y-96626054D02*
X177121122Y-96706866D01*
X177121122Y-96706866D02*
X177201934Y-96733803D01*
X177201934Y-96733803D02*
X177309684Y-96733803D01*
X177309684Y-96733803D02*
X177417433Y-96679929D01*
X177417433Y-96679929D02*
X177471308Y-96626054D01*
X177471308Y-96626054D02*
X177525183Y-96518304D01*
X177525183Y-96518304D02*
X177525183Y-96464429D01*
X177525183Y-96464429D02*
X177336621Y-96275868D01*
X177336621Y-96275868D02*
X177228871Y-96383617D01*
X177821494Y-96275868D02*
X177255809Y-95710182D01*
X177255809Y-95710182D02*
X177471308Y-95494683D01*
X177471308Y-95494683D02*
X177552120Y-95467746D01*
X177552120Y-95467746D02*
X177605995Y-95467746D01*
X177605995Y-95467746D02*
X177686807Y-95494683D01*
X177686807Y-95494683D02*
X177767619Y-95575495D01*
X177767619Y-95575495D02*
X177794557Y-95656307D01*
X177794557Y-95656307D02*
X177794557Y-95710182D01*
X177794557Y-95710182D02*
X177767619Y-95790994D01*
X177767619Y-95790994D02*
X177552120Y-96006494D01*
X178414117Y-95683245D02*
X178521867Y-95575495D01*
X178521867Y-95575495D02*
X178548804Y-95494683D01*
X178548804Y-95494683D02*
X178548804Y-95440808D01*
X178548804Y-95440808D02*
X178521867Y-95306121D01*
X178521867Y-95306121D02*
X178441054Y-95171434D01*
X178441054Y-95171434D02*
X178225555Y-94955935D01*
X178225555Y-94955935D02*
X178144743Y-94928998D01*
X178144743Y-94928998D02*
X178090868Y-94928998D01*
X178090868Y-94928998D02*
X178010056Y-94955935D01*
X178010056Y-94955935D02*
X177902306Y-95063685D01*
X177902306Y-95063685D02*
X177875369Y-95144497D01*
X177875369Y-95144497D02*
X177875369Y-95198372D01*
X177875369Y-95198372D02*
X177902306Y-95279184D01*
X177902306Y-95279184D02*
X178036993Y-95413871D01*
X178036993Y-95413871D02*
X178117806Y-95440808D01*
X178117806Y-95440808D02*
X178171680Y-95440808D01*
X178171680Y-95440808D02*
X178252493Y-95413871D01*
X178252493Y-95413871D02*
X178360242Y-95306121D01*
X178360242Y-95306121D02*
X178387180Y-95225309D01*
X178387180Y-95225309D02*
X178387180Y-95171434D01*
X178387180Y-95171434D02*
X178360242Y-95090622D01*
X103165316Y-127248569D02*
X103165316Y-127962854D01*
X103165316Y-127962854D02*
X103117697Y-128105711D01*
X103117697Y-128105711D02*
X103022459Y-128200950D01*
X103022459Y-128200950D02*
X102879602Y-128248569D01*
X102879602Y-128248569D02*
X102784364Y-128248569D01*
X103593888Y-127343807D02*
X103641507Y-127296188D01*
X103641507Y-127296188D02*
X103736745Y-127248569D01*
X103736745Y-127248569D02*
X103974840Y-127248569D01*
X103974840Y-127248569D02*
X104070078Y-127296188D01*
X104070078Y-127296188D02*
X104117697Y-127343807D01*
X104117697Y-127343807D02*
X104165316Y-127439045D01*
X104165316Y-127439045D02*
X104165316Y-127534283D01*
X104165316Y-127534283D02*
X104117697Y-127677140D01*
X104117697Y-127677140D02*
X103546269Y-128248569D01*
X103546269Y-128248569D02*
X104165316Y-128248569D01*
X182597916Y-142654819D02*
X182597916Y-143369104D01*
X182597916Y-143369104D02*
X182550297Y-143511961D01*
X182550297Y-143511961D02*
X182455059Y-143607200D01*
X182455059Y-143607200D02*
X182312202Y-143654819D01*
X182312202Y-143654819D02*
X182216964Y-143654819D01*
X183550297Y-142654819D02*
X183074107Y-142654819D01*
X183074107Y-142654819D02*
X183026488Y-143131009D01*
X183026488Y-143131009D02*
X183074107Y-143083390D01*
X183074107Y-143083390D02*
X183169345Y-143035771D01*
X183169345Y-143035771D02*
X183407440Y-143035771D01*
X183407440Y-143035771D02*
X183502678Y-143083390D01*
X183502678Y-143083390D02*
X183550297Y-143131009D01*
X183550297Y-143131009D02*
X183597916Y-143226247D01*
X183597916Y-143226247D02*
X183597916Y-143464342D01*
X183597916Y-143464342D02*
X183550297Y-143559580D01*
X183550297Y-143559580D02*
X183502678Y-143607200D01*
X183502678Y-143607200D02*
X183407440Y-143654819D01*
X183407440Y-143654819D02*
X183169345Y-143654819D01*
X183169345Y-143654819D02*
X183074107Y-143607200D01*
X183074107Y-143607200D02*
X183026488Y-143559580D01*
X176150298Y-124273866D02*
X176912203Y-124273866D01*
X188259821Y-124314700D02*
X189402679Y-124314700D01*
X188831250Y-124886128D02*
X188831250Y-123743271D01*
D11*
%TO.C,C1*%
X94506067Y-130808750D02*
X93456067Y-130808750D01*
X93981067Y-131333750D02*
X93981067Y-130283750D01*
X94128934Y-127793750D02*
G75*
G03*
X83388934Y-127793750I-5370000J0D01*
G01*
X83388934Y-127793750D02*
G75*
G03*
X94128934Y-127793750I5370000J0D01*
G01*
%TO.C,J3*%
X131538750Y-131830000D02*
X131538750Y-130500000D01*
X132868750Y-131830000D02*
X131538750Y-131830000D01*
X134138750Y-131830000D02*
X149438750Y-131830000D01*
X134138750Y-131830000D02*
X134138750Y-129170000D01*
X149438750Y-131830000D02*
X149438750Y-129170000D01*
X134138750Y-129170000D02*
X149438750Y-129170000D01*
%TO.C,U1*%
X180000000Y-66575000D02*
X180000000Y-66875000D01*
X180000000Y-66575000D02*
X201000000Y-66575000D01*
X180000000Y-68975000D02*
X180000000Y-69375000D01*
X180000000Y-69242000D02*
X183007000Y-69242000D01*
X180000000Y-71575000D02*
X180000000Y-71975000D01*
X180000000Y-74075000D02*
X180000000Y-74475000D01*
X180000000Y-76675000D02*
X180000000Y-77075000D01*
X180000000Y-79175000D02*
X180000000Y-79575000D01*
X180000000Y-81675000D02*
X180000000Y-82075000D01*
X180000000Y-84275000D02*
X180000000Y-84675000D01*
X180000000Y-86775000D02*
X180000000Y-87175000D01*
X180000000Y-89375000D02*
X180000000Y-89775000D01*
X180000000Y-91875000D02*
X180000000Y-92275000D01*
X180000000Y-94375000D02*
X180000000Y-94775000D01*
X180000000Y-96975000D02*
X180000000Y-97375000D01*
X180000000Y-99475000D02*
X180000000Y-99875000D01*
X180000000Y-102075000D02*
X180000000Y-102475000D01*
X180000000Y-104575000D02*
X180000000Y-104975000D01*
X180000000Y-107175000D02*
X180000000Y-107575000D01*
X180000000Y-109675000D02*
X180000000Y-110075000D01*
X180000000Y-112175000D02*
X180000000Y-112575000D01*
X180000000Y-114775000D02*
X180000000Y-115175000D01*
X183007000Y-69242000D02*
X183007000Y-66575000D01*
X186800000Y-117575000D02*
X180000000Y-117575000D01*
X189000000Y-117575000D02*
X189400000Y-117575000D01*
X191600000Y-117575000D02*
X192000000Y-117575000D01*
X201000000Y-66575000D02*
X201000000Y-66875000D01*
X201000000Y-68975000D02*
X201000000Y-69375000D01*
X201000000Y-71575000D02*
X201000000Y-71975000D01*
X201000000Y-74075000D02*
X201000000Y-74475000D01*
X201000000Y-76675000D02*
X201000000Y-77075000D01*
X201000000Y-79175000D02*
X201000000Y-79575000D01*
X201000000Y-81675000D02*
X201000000Y-82075000D01*
X201000000Y-84275000D02*
X201000000Y-84675000D01*
X201000000Y-86775000D02*
X201000000Y-87175000D01*
X201000000Y-89375000D02*
X201000000Y-89775000D01*
X201000000Y-91875000D02*
X201000000Y-92275000D01*
X201000000Y-94375000D02*
X201000000Y-94775000D01*
X201000000Y-96975000D02*
X201000000Y-97375000D01*
X201000000Y-99475000D02*
X201000000Y-99875000D01*
X201000000Y-102075000D02*
X201000000Y-102475000D01*
X201000000Y-104575000D02*
X201000000Y-104975000D01*
X201000000Y-107175000D02*
X201000000Y-107575000D01*
X201000000Y-109675000D02*
X201000000Y-110075000D01*
X201000000Y-112175000D02*
X201000000Y-112575000D01*
X201000000Y-114775000D02*
X201000000Y-115175000D01*
X201000000Y-117575000D02*
X194200000Y-117575000D01*
D12*
%TO.C,J2*%
X95871650Y-123666750D02*
X95871650Y-132920750D01*
X95871650Y-132920750D02*
X111125651Y-132920750D01*
X111125651Y-123666750D02*
X95871650Y-123666750D01*
X111125651Y-132920750D02*
X111125651Y-123666750D01*
D13*
X94474650Y-127793750D02*
G75*
G03*
X93712650Y-127793750I-381000J0D01*
G01*
X93712650Y-127793750D02*
G75*
G03*
X94474650Y-127793750I381000J0D01*
G01*
D12*
%TO.C,U2*%
X167292909Y-132031740D02*
X167292909Y-123776740D01*
X167292909Y-123776740D02*
X152535509Y-123776740D01*
X152535509Y-132031740D02*
X167292909Y-132031740D01*
X152535509Y-123776740D02*
X152535509Y-132031740D01*
D11*
%TO.C,J5*%
X190791250Y-134460000D02*
X190791250Y-128850000D01*
X190791250Y-134460000D02*
X189941250Y-134460000D01*
X189941250Y-142160000D02*
X189941250Y-134460000D01*
X189941250Y-142160000D02*
X175921250Y-142160000D01*
X185381250Y-124740000D02*
X181641250Y-124740000D01*
X175921250Y-142160000D02*
X175921250Y-134460000D01*
X175921250Y-134460000D02*
X175071250Y-134460000D01*
X175071250Y-134460000D02*
X175071250Y-128850000D01*
X190791249Y-128850000D02*
G75*
G03*
X187921150Y-124891282I-4109997J40002D01*
G01*
X177064444Y-125327042D02*
G75*
G03*
X175071250Y-128850000I2116806J-3522958D01*
G01*
D12*
%TO.C,J4*%
X114844200Y-124166749D02*
X114844200Y-132015349D01*
X114844200Y-132015349D02*
X125105800Y-132015349D01*
X125105800Y-124166749D02*
X114844200Y-124166749D01*
X125105800Y-132015349D02*
X125105800Y-124166749D01*
D13*
X113447200Y-127793750D02*
G75*
G03*
X112685200Y-127793750I-381000J0D01*
G01*
X112685200Y-127793750D02*
G75*
G03*
X113447200Y-127793750I381000J0D01*
G01*
%TD*%
D14*
%TO.C,J1*%
X161370000Y-114980000D03*
X161370000Y-65980000D03*
X103370000Y-114980000D03*
X103370000Y-65980000D03*
D15*
X156500000Y-113710000D03*
D16*
X156500000Y-116250000D03*
X153960000Y-113710000D03*
X153960000Y-116250000D03*
X151420000Y-113710000D03*
X151420000Y-116250000D03*
X148880000Y-113710000D03*
X148880000Y-116250000D03*
X146340000Y-113710000D03*
X146340000Y-116250000D03*
X143800000Y-113710000D03*
X143800000Y-116250000D03*
X141260000Y-113710000D03*
X141260000Y-116250000D03*
X138720000Y-113710000D03*
X138720000Y-116250000D03*
X136180000Y-113710000D03*
X136180000Y-116250000D03*
X133640000Y-113710000D03*
X133640000Y-116250000D03*
X131100000Y-113710000D03*
X131100000Y-116250000D03*
X128560000Y-113710000D03*
X128560000Y-116250000D03*
X126020000Y-113710000D03*
X126020000Y-116250000D03*
X123480000Y-113710000D03*
X123480000Y-116250000D03*
X120940000Y-113710000D03*
X120940000Y-116250000D03*
X118400000Y-113710000D03*
X118400000Y-116250000D03*
X115860000Y-113710000D03*
X115860000Y-116250000D03*
X113320000Y-113710000D03*
X113320000Y-116250000D03*
X110780000Y-113710000D03*
X110780000Y-116250000D03*
X108240000Y-113710000D03*
X108240000Y-116250000D03*
%TD*%
%LPC*%
D17*
%TO.C,C1*%
X91258934Y-127793750D03*
D18*
X86258934Y-127793750D03*
%TD*%
D14*
%TO.C,J1*%
X161370000Y-114980000D03*
X161370000Y-65980000D03*
X103370000Y-114980000D03*
X103370000Y-65980000D03*
D15*
X156500000Y-113710000D03*
D16*
X156500000Y-116250000D03*
X153960000Y-113710000D03*
X153960000Y-116250000D03*
X151420000Y-113710000D03*
X151420000Y-116250000D03*
X148880000Y-113710000D03*
X148880000Y-116250000D03*
X146340000Y-113710000D03*
X146340000Y-116250000D03*
X143800000Y-113710000D03*
X143800000Y-116250000D03*
X141260000Y-113710000D03*
X141260000Y-116250000D03*
X138720000Y-113710000D03*
X138720000Y-116250000D03*
X136180000Y-113710000D03*
X136180000Y-116250000D03*
X133640000Y-113710000D03*
X133640000Y-116250000D03*
X131100000Y-113710000D03*
X131100000Y-116250000D03*
X128560000Y-113710000D03*
X128560000Y-116250000D03*
X126020000Y-113710000D03*
X126020000Y-116250000D03*
X123480000Y-113710000D03*
X123480000Y-116250000D03*
X120940000Y-113710000D03*
X120940000Y-116250000D03*
X118400000Y-113710000D03*
X118400000Y-116250000D03*
X115860000Y-113710000D03*
X115860000Y-116250000D03*
X113320000Y-113710000D03*
X113320000Y-116250000D03*
X110780000Y-113710000D03*
X110780000Y-116250000D03*
X108240000Y-113710000D03*
X108240000Y-116250000D03*
%TD*%
D19*
%TO.C,J3*%
X132868750Y-130500000D03*
D20*
X135408750Y-130500000D03*
X137948750Y-130500000D03*
X140488750Y-130500000D03*
X143028750Y-130500000D03*
X145568750Y-130500000D03*
X148108750Y-130500000D03*
%TD*%
D21*
%TO.C,U1*%
X187775000Y-68075000D03*
D22*
X188075000Y-71105000D03*
X192925000Y-71105000D03*
D21*
X193225000Y-68075000D03*
D20*
X181610000Y-67945000D03*
D23*
X180710000Y-67945000D03*
D20*
X181610000Y-70485000D03*
D23*
X180710000Y-70485000D03*
D19*
X181610000Y-73025000D03*
D23*
X180710000Y-73025000D03*
D20*
X181610000Y-75565000D03*
D23*
X180710000Y-75565000D03*
D20*
X181610000Y-78105000D03*
D23*
X180710000Y-78105000D03*
D20*
X181610000Y-80645000D03*
D23*
X180710000Y-80645000D03*
D20*
X181610000Y-83185000D03*
D23*
X180710000Y-83185000D03*
D19*
X181610000Y-85725000D03*
D23*
X180710000Y-85725000D03*
D20*
X181610000Y-88265000D03*
D23*
X180710000Y-88265000D03*
D20*
X181610000Y-90805000D03*
D23*
X180710000Y-90805000D03*
D20*
X181610000Y-93345000D03*
D23*
X180710000Y-93345000D03*
D20*
X181610000Y-95885000D03*
D23*
X180710000Y-95885000D03*
D19*
X181610000Y-98425000D03*
D23*
X180710000Y-98425000D03*
D20*
X181610000Y-100965000D03*
D23*
X180710000Y-100965000D03*
D20*
X181610000Y-103505000D03*
D23*
X180710000Y-103505000D03*
D20*
X181610000Y-106045000D03*
D23*
X180710000Y-106045000D03*
D20*
X181610000Y-108585000D03*
D23*
X180710000Y-108585000D03*
D19*
X181610000Y-111125000D03*
D23*
X180710000Y-111125000D03*
D20*
X181610000Y-113665000D03*
D23*
X180710000Y-113665000D03*
D20*
X181610000Y-116205000D03*
D23*
X180710000Y-116205000D03*
D20*
X199390000Y-116205000D03*
D23*
X200290000Y-116205000D03*
D20*
X199390000Y-113665000D03*
D23*
X200290000Y-113665000D03*
D19*
X199390000Y-111125000D03*
D23*
X200290000Y-111125000D03*
D20*
X199390000Y-108585000D03*
D23*
X200290000Y-108585000D03*
D20*
X199390000Y-106045000D03*
D23*
X200290000Y-106045000D03*
D20*
X199390000Y-103505000D03*
D23*
X200290000Y-103505000D03*
D20*
X199390000Y-100965000D03*
D23*
X200290000Y-100965000D03*
D19*
X199390000Y-98425000D03*
D23*
X200290000Y-98425000D03*
D20*
X199390000Y-95885000D03*
D23*
X200290000Y-95885000D03*
D20*
X199390000Y-93345000D03*
D23*
X200290000Y-93345000D03*
D20*
X199390000Y-90805000D03*
D23*
X200290000Y-90805000D03*
D20*
X199390000Y-88265000D03*
D23*
X200290000Y-88265000D03*
D19*
X199390000Y-85725000D03*
D23*
X200290000Y-85725000D03*
D20*
X199390000Y-83185000D03*
D23*
X200290000Y-83185000D03*
D20*
X199390000Y-80645000D03*
D23*
X200290000Y-80645000D03*
D20*
X199390000Y-78105000D03*
D23*
X200290000Y-78105000D03*
D20*
X199390000Y-75565000D03*
D23*
X200290000Y-75565000D03*
D19*
X199390000Y-73025000D03*
D23*
X200290000Y-73025000D03*
D20*
X199390000Y-70485000D03*
D23*
X200290000Y-70485000D03*
D20*
X199390000Y-67945000D03*
D23*
X200290000Y-67945000D03*
D20*
X187960000Y-115975000D03*
D24*
X187960000Y-116875000D03*
D19*
X190500000Y-115975000D03*
D24*
X190500000Y-116875000D03*
D20*
X193040000Y-115975000D03*
D24*
X193040000Y-116875000D03*
%TD*%
D25*
%TO.C,J2*%
X98498650Y-127793750D03*
X103498650Y-127793750D03*
X108498650Y-127793750D03*
%TD*%
D26*
%TO.C,U2*%
X162242500Y-127793750D03*
X159702500Y-127793750D03*
X157162500Y-127793750D03*
%TD*%
D27*
%TO.C,J5*%
X189681250Y-132700000D03*
X176181250Y-132700000D03*
D28*
X179331250Y-126700000D03*
D29*
X186531250Y-126700000D03*
%TD*%
D25*
%TO.C,J4*%
X117475000Y-127793750D03*
X122475000Y-127793750D03*
%TD*%
%LPD*%
M02*
